<svg xmlns="http://www.w3.org/2000/svg" version="1.1" width="600px" height="600px" viewBox="0 0 200 200" style="overflow:hidden!important;"><defs id="SvgjsDefs2848"></defs><g id="svga-group-wrapper"><g id="svga-group-backs-single"><path id="SvgjsPath7351" d="M0 0h200v200H0V0z" fill="#e8fffe" stroke-width="none" opacity="1" stroke="none"></path></g><g id="svga-group-humanwrap-move" transform="matrix(1,0,0,1,0,0)"><g id="svga-group-humanwrap" transform="matrix(1,0,0,1,0,0)"><g id="svga-group-hair-back-move" transform="matrix(1,0,0,1,0,0)"><g id="svga-group-hair-back" transform="matrix(1,0,0,1,0,0)"></g></g><g id="svga-group-humanbody-back"><path id="SvgjsPath3152" d="m168.5 219.5-1.7-21.5s.7-9-8.8-15.3-23.4-10.1-29.5-14.2c-6.1-4.1-9.2-4.5-9-16.9s.9-40.3.9-40.3H79.6s.7 27.9.9 40.3c.2 12.4-2.9 12.8-9 16.9-6.1 4.1-20 7.9-29.5 14.2S33.2 198 33.2 198l-1.6 21.5h136.9z" fill="#b4d46c" stroke-width="none" opacity="1" stroke="none"></path></g><g id="svga-group-chinshadow-single"><path id="SvgjsPath3556" d="M96.1 160.3c2.4 1.4 5.4 1.4 7.9 0 4.03-2.19 10.37-5.84 15.51-9.27.21-12.66.89-39.73.89-39.73H79.6s.68 26.97.89 39.66c5.16 3.45 11.55 7.13 15.61 9.34z" fill="#8fb538" stroke-width="none" opacity="0.65" stroke="none"></path></g><g id="svga-group-humanbody-front"><path id="SvgjsPath3153" d="M73.8 175.9c5.1 2.9 11.8 5.2 17.6 5.7.4 0 .4-.6.1-.7-2.8-1.1-5.9-1.7-8.8-2.6-2.9-.9-5.8-2-8.8-2.7-.1-.1-.3.2-.1.3zm35.2 6.2c5.3-.6 11.3-3 15.9-5.8.3-.2.1-.6-.2-.5-2.6.9-5.2 2-7.8 2.9-2.6.9-5.4 1.5-8 2.5-.5.1-.5.9.1.9z" fill="#8fb538" stroke-width="none" opacity="1" stroke="none"></path><path id="SvgjsPath3154" d="m168.4 219.4-2.1-21.4c0-2.2-.5-4.5-1.5-6.6-.9-2.1-2.3-3.9-3.9-5.5s-3.5-2.8-5.5-4c-2-1.2-4.1-2.2-6.2-3.1-4.2-1.9-8.6-3.6-12.9-5.4-2.2-.9-4.3-1.9-6.4-3-1.1-.6-2.1-1.2-3-1.9-1-.6-2-1.2-3-1.9s-2-1.5-2.8-2.6c-.8-1-1.3-2.2-1.7-3.4-.7-2.4-.8-4.8-.8-7.2 0-4.7.2-9.4.3-14.1.2-9.4.6-18.7.9-28l.6.6-20.4-.2-20.4-.1.3-.3.7 28c.1 4.7.3 9.3.4 14 0 2.4-.1 4.7-.8 7.1-.3 1.2-.9 2.3-1.6 3.3-.8 1-1.7 1.8-2.7 2.5s-2 1.3-2.9 2c-.9.6-1.9 1.3-3 1.9-2.1 1.2-4.2 2.1-6.4 3.1-4.3 1.9-8.6 3.6-12.8 5.6-2.1 1-4.2 2.1-6.1 3.2-2 1.2-3.8 2.4-5.4 4-1.6 1.6-2.9 3.4-3.8 5.4-.4 1-.8 2.1-1 3.1-.2 1.1-.4 2.2-.3 3.2v.2l-1.5 21.5-1-1.1 34 .1c11.3 0 22.7.1 34.1.2l34.2.3 34.4.5zm.2.2-34 .4-34.2.3c-11.4.1-22.9.2-34.4.2l-34.4.1h-1.1l.1-1.1 1.7-21.5v.1c-.1-5.1 2.2-9.8 5.7-13.3 1.7-1.7 3.8-3.1 5.8-4.3 2-1.2 4.2-2.2 6.3-3.2 4.3-2 8.7-3.7 13-5.4 2.1-.9 4.3-1.8 6.3-2.9 1-.5 1.9-1.1 3-1.8 1-.6 2-1.2 2.9-1.9.9-.6 1.8-1.4 2.4-2.2.7-.9 1.2-1.9 1.5-2.9.6-2.1.8-4.5.8-6.8 0-4.6-.1-9.3-.2-14l-.6-28v-.3h.3l20.4-.1 20.4-.2h.6v.6c-.1 9.3-.2 18.7-.4 28-.1 4.7-.2 9.4-.2 14 .1 2.3.2 4.6.8 6.7.3 1.1.8 2 1.4 2.9.6.8 1.4 1.6 2.4 2.2.9.6 1.9 1.3 2.9 1.9 1 .7 1.9 1.3 2.9 1.8 2 1.1 4.1 2.1 6.3 3 4.3 1.8 8.6 3.6 12.9 5.6 2.1 1 4.2 2.1 6.2 3.3 2 1.2 4 2.6 5.7 4.3 3.4 3.4 5.6 8.1 5.4 13v-.1l1.4 21.6zm-112.8-.4 1.9-13.8.1 13.8h-2zm88.6 0-1.9-13.8-.1 13.8h2z" fill="#7ea623" stroke-width="none" opacity="1" stroke="none"></path></g><g id="svga-group-clothes-single"><path id="SvgjsPath7304" d="M54.9 172.7s-17 4.4-20 11c0 0-1.6-.6-4.2.8s-4.4 18.8-4.4 35.5h147.5c0-16.8-1.8-34.1-4.4-35.5s-4.2-.8-4.2-.8c-3-6.6-20-11-20-11s-44.3 32.3-90.3 0z" fill="#009494" stroke-width="none" opacity="1"></path><path id="SvgjsPath7305" d="M77.4 142.4c-1.7-.1-8.7-.5-14.5 2.8l2.3 1.2s-8 2.4-11.1 9.6l2.3.2s-5.3 5.9-7 13.5l2.2-.2s-2.5 7.4-.8 10.9l1.8-2.1s2.2 6.3 7.4 10.4l-.4-3.9s4.7 8 15.2 13.7l-.4-4.7s5.5 6.6 12.1 9.8l-1.4-4.3s5.1 4.7 7.4 6.6l.4-2.9s4.7 4.5 7.8 6.3 3.7 7.8 3.7 7.8l1.9-5.3 1.2 2.4 6.7-5.7v2.1l2.5-3.7 1.6.8 7.2-7-.8 4.1s9-5.9 10.9-10.4l.4 2.5s7.4-7.6 9.4-12.9l.6 2.9s3.3-5.9 3.1-14.1l3.5 3.1s-.8-11.3-5.7-17.4l5.5 1.4s-3.3-7.5-12.7-10.2l2.9-1s-6.8-3.9-13.3-2.4c0 0 1.8-1.9 1.2-1.9s-9.5-1.8-9.7-.4c-.3 1.8-.8 5-1.6 7.3l2.3-.5s-5.1 5.3-3.9 7.4l4.8-3.4s-4.2 4.4-4.6 6.2-4.5 5.7-4.5 5.7l6.6-2.4s-2.9 3.2-7 5.1c-4.1 1.9-4.8 4.5-4.8 4.5l6.3-.4s-4.1.8-6.8 3.1-3.1 5.5-3.1 5.5l2.7-1.2-2.5 4.1s-1.9-3.3-3.1-5.7-5.5-4.9-4.9-5.1c.6-.2 4.7 1 4.7 1s-4.9-4.9-11.7-6.4l2.5-1.2s-3.7-.2-6.4-2.1-5.7-8.4-5.7-8.4l2.5 1s-1.8-2.7-2.8-5.6c-.7-2.3.4-3.8.4-3.8l-.5-4-.3-.9-.6-.7-.8-.4c-.2-.2-.4-.3-.6-.3z" fill="#009494" stroke-width="none" opacity="1"></path><path id="SvgjsPath7306" d="M77.4 142.4c-1.7-.1-8.7-.5-14.5 2.8l2.3 1.2s-8 2.4-11.1 9.6l2.3.2s-5.3 5.9-7 13.5l2.2-.2s-2.5 7.4-.8 10.9l1.8-2.1s2.2 6.3 7.4 10.4l-.4-3.9s4.7 8 15.2 13.7l-.4-4.7s5.5 6.6 12.1 9.8l-1.4-4.3s5.1 4.7 7.4 6.6l.4-2.9s4.7 4.5 7.8 6.3 3.7 7.8 3.7 7.8l1.9-5.3 1.2 2.4 6.7-5.7v2.1l2.5-3.7 1.6.8 7.2-7-.8 4.1s9-5.9 10.9-10.4l.4 2.5s7.4-7.6 9.4-12.9l.6 2.9s3.3-5.9 3.1-14.1l3.5 3.1s-.8-11.3-5.7-17.4l5.5 1.4s-3.3-7.5-12.7-10.2l2.9-1s-6.8-3.9-13.3-2.4c0 0 1.8-1.9 1.2-1.9s-9.5-1.8-9.7-.4c-.3 1.8-.8 5-1.6 7.3l2.3-.5s-5.1 5.3-3.9 7.4l4.8-3.4s-4.2 4.4-4.6 6.2-4.5 5.7-4.5 5.7l6.6-2.4s-2.9 3.2-7 5.1c-4.1 1.9-4.8 4.5-4.8 4.5l6.3-.4s-4.1.8-6.8 3.1-3.1 5.5-3.1 5.5l2.7-1.2-2.5 4.1s-1.9-3.3-3.1-5.7-5.5-4.9-4.9-5.1c.6-.2 4.7 1 4.7 1s-4.9-4.9-11.7-6.4l2.5-1.2s-3.7-.2-6.4-2.1-5.7-8.4-5.7-8.4l2.5 1s-1.8-2.7-2.8-5.6c-.7-2.3.4-3.8.4-3.8l-.5-4-.3-.9-.6-.7-.8-.4c-.2-.2-.4-.3-.6-.3z" fill="#ffffff" stroke-width="none" opacity="0.9"></path><path id="SvgjsPath7307" d="M146.3 160.9c-.2-.9-.7-1.8-1.2-2.6s-1.1-1.6-1.7-2.3c-1-1.2-2.1-2.3-3.3-3.3l1.8-.3c.1 0 .2-.1.3-.2.1-.2.1-.5-.1-.6-1.3-.9-2.8-1.3-4.2-1.7-1.4-.4-2.9-.7-4.3-.9 1.4.5 2.8.9 4.1 1.5.7.3 1.4.5 2 .8.3.1.6.3.8.4-.5.1-1.1.2-1.6.3-.1 0-.2.1-.3.2-.2.2-.1.5.1.7 1.4 1.2 2.8 2.5 4 3.8 1.1 1.2 2.1 2.4 2.8 3.8-.6-.4-1.3-.7-1.9-1.1l2.4 1.8c.1 0 .1.1.2 0s.1-.2.1-.3zm-12.2 12.2c-.2 1-.5 2.1-.8 3.1-.2.6-.4 1.3-.6 1.9l-.6-1.4c-.1-.1-.2-.2-.4-.3-.3-.1-.5.1-.6.4-.4 1.9-.9 3.7-1.4 5.6-.3.9-.6 1.8-1 2.7-.3.7-.7 1.3-1.2 1.9.1-.9.2-1.8.2-2.7-.3 1.1-.5 2.2-.7 3.3v.2c.1.1.2.1.3.1.9-.6 1.4-1.4 1.9-2.3.5-.9.9-1.8 1.3-2.7.5-1.4.9-2.8 1.3-4.2l.6 1.2c.1.1.1.2.3.2.2.1.5 0 .6-.3.8-2.1 1.2-4.2 1.6-6.3.2-1.1.3-2.1.4-3.2.1-1.1.2-2.1.2-3.2-.2 1.1-.4 2.1-.6 3.2-.4.8-.5 1.8-.8 2.8zm-42.2 2.1c.5.3 1.1.6 1.6.9.8.5 1.5 1.1 2.1 1.8l-2.1.1c-.1 0-.2 0-.2.1-.1.1-.1.3 0 .4l2.5 2.1c.4.4.8.7 1.2 1.1.4.4.8.7 1.1 1.2-.3-.5-.6-.9-1-1.3s-.7-.8-1.1-1.2l-1.8-1.8 2.2.1c.1 0 .2 0 .2-.1.2-.1.2-.4.1-.5-.8-1.1-1.7-1.9-2.8-2.6-.5-.4-1.1-.7-1.7-1-.6-.3-1.2-.5-1.8-.7-1.1-.4-2.2-1-3.2-1.7-.8-.5-1.5-1.1-2.2-1.6l2.1-.6c.1 0 .2-.1.2-.2.1-.2.1-.4-.1-.6-1.5-1-2.9-2.1-4.3-3.2-.7-.6-1.4-1.1-2-1.8-.6-.6-1.3-1.3-1.7-2.1.3.9.9 1.6 1.4 2.3.6.7 1.2 1.3 1.9 2 1.1 1 2.3 2 3.5 3l-2.2.6c-.1 0-.2.1-.2.1-.2.2-.2.5 0 .6.9.9 2 1.6 3 2.3 1.1.7 2.2 1.3 3.4 1.8.8.1 1.3.3 1.9.5zm9.1 19.5c-.9-1.5-1.8-3-2.8-4.5l2.1.6c.1 0 .3 0 .4-.1.2-.2.2-.5.1-.7-1.2-1.6-2.4-3.1-3.6-4.6l-.1-.1c-1.5-.8-3-1.7-4.5-2.6l-2.2-1.4c-.7-.5-1.4-1-2.1-1.6.5.7 1.2 1.3 1.8 1.9.7.6 1.4 1.1 2.1 1.6 1.4 1 2.8 1.9 4.3 2.8.9 1.2 1.8 2.3 2.7 3.5l-1.8-.4c-.1 0-.2 0-.3.1-.2.1-.2.4-.1.6 1.2 1.6 2.4 3.3 3.8 4.9-.5.1-.9.2-1.4.2h1.8c-.2-.1-.1-.2-.2-.2zm-37-8.3c-.6-.9-1.1-1.9-1.6-2.9-1-2-1.9-4-2.7-6.1-.1-.1-.2-.3-.4-.3-.3-.1-.5.1-.6.4l-.3 1.4c-.3-.7-.6-1.4-.8-2.2-.3-1.2-.6-2.4-.8-3.6 0-.1 0-.2-.1-.2-.2-.2-.5-.2-.6 0l-1.6 1.6c0-1.4 0-2.7.1-4 0-.8.1-1.6.2-2.5.2-.8.3-1.6.8-2.3-.5.6-.8 1.5-1 2.3-.2.8-.3 1.6-.5 2.5-.2 1.7-.3 3.3-.4 5 0 .1 0 .2.1.3.1.2.4.2.5 0 .6-.5 1.2-1 1.7-1.6.2 1 .3 2 .6 2.9l.6 1.8c.3.6.5 1.2 1 1.8.1.1.2.1.3.2.3.1.5-.1.6-.4l.2-1c.7 1.6 1.4 3.1 2.2 4.6.5 1 1.1 1.9 1.8 2.9.6.9 1.4 1.8 2.3 2.5h.1c.1 0 .2-.1.2-.2.1-1.2.1-2.3.2-3.5-.2 1-.3 2.1-.4 3.1-.6-.9-1.1-1.7-1.7-2.5zm80.3-7.9-.9 2.4c-.2-.4-.4-.8-.6-1.1-.1-.1-.2-.2-.3-.2-.3-.1-.5.1-.6.3l-1.2 3.9c-.2.6-.4 1.3-.6 1.9-.2.5-.4.9-.6 1.4-.2-.5-.3-1.1-.5-1.6.1.7.2 1.5.3 2.2 0 .1 0 .1.1.1.1.1.2.1.3 0 .5-.6.8-1.2 1.1-1.8.3-.6.6-1.2.8-1.9.4-.9.7-1.9 1-2.8.2.3.4.7.6 1l.2.2c.2.1.5 0 .6-.3.4-1.1.7-2.3 1-3.5l.3-1.8c.1-.6.1-1.2 0-1.8-.3 1.2-.7 2.3-1 3.4z" fill="#ffffff" stroke-width="none" opacity="1"></path><path id="SvgjsPath7308" d="m60.4 156.6 1.5-2.4c.5-.8 1.1-1.6 1.8-2.2-.8.6-1.4 1.4-2 2.1-.6.8-1.2 1.6-1.7 2.4-.5.8-1 1.7-1.4 2.5-.4.9-.8 1.8-1 2.8v.2c.1.1.3.2.4.1l2.3-1.1c-.5 1.4-.9 2.9-1.2 4.3-.2.9-.3 1.7-.5 2.6-.1.9-.2 1.8-.1 2.7 0 .1 0 .2.1.2.2.1.4.1.5 0l1.3-1.6c-.1 1.2-.1 2.4 0 3.5.1 1.5.4 3.1 1.1 4.4v.1c.1 0 .1 0 .2-.1l1.5-3-1.6 2.7c-.5-1.3-.7-2.7-.8-4.1-.1-1.5 0-3 .2-4.4 0-.1 0-.2-.1-.3-.1-.1-.3-.1-.5 0l-1.4 1.6c0-.6 0-1.1.1-1.7.1-.9.3-1.7.5-2.5.4-1.7.8-3.4 1.4-5v-.3c-.1-.2-.3-.2-.5-.1l-2.3 1.2c.2-.7.4-1.4.7-2 .6-1 1-1.8 1.5-2.6zm9.2 28.5c-.4-.5-.8-.9-1.2-1.4-.4-.5-.8-1-1-1.6 0 .6.3 1.3.6 1.8.3.6.7 1.1 1.1 1.6.8 1 1.7 1.9 2.7 2.7l.1.1c.2 0 .3-.1.3-.2.2-.8.3-1.7.5-2.6-.3.6-.6 1.3-.8 1.9l-2.3-2.3zm16.2 8.5c-.6-.6-1.1-1.3-1.6-1.9-.5-.6-1-1.3-1.5-2v-.1s-.1-.2-.2-.2c-.1-.1-.2-.1-.3-.1-.1 0-.2.1-.2.1l-.1.1c-.1.1-.2.2-.2.3l-.3.6-.3.6c-.7-.8-1.4-1.6-2-2.5-.7-1-1.5-2-2.1-3.1.4 1.2 1 2.3 1.7 3.4s1.4 2.1 2.2 3.1l.1.1c.2.1.4 0 .5-.2l.5-1.1c.1-.1.1-.3.2-.4.4.6.9 1.2 1.3 1.8 1.1 1.3 2.2 2.6 3.6 3.6h.1c.1 0 .2 0 .2-.1l.9-3c-.4.9-.8 1.7-1.2 2.6-.4-.5-.9-1.1-1.3-1.6zm-3.8-3.7s-.1-.1 0 0zm-4.5-12.5c.7.7 1.4 1.4 2.4 1.8.1 0 .1 0 .1-.1.1-.6.1-1.2.1-1.9-.1.6-.2 1.1-.3 1.6-.8-.5-1.4-1.1-2-1.8-.6-.7-1.1-1.6-1.6-2.4-.1-.1-.2-.2-.3-.2-.2 0-.3.2-.3.4l.3 2.1-1.8-1.6-1.2-1.1-.6-.6c-.1-.1-.2-.2-.2-.3v-.1l-.1-.2c-.4-1-.9-2.1-1.3-3.1-.4-1.1-.8-2.1-.9-3.2-.1.6 0 1.1.1 1.7.1.6.2 1.1.4 1.7.3 1.1.7 2.2 1.1 3.2l.1.2v.1c0 .1.1.1.1.2.1.2.2.2.3.4l.6.6 1.2 1.2c.8.8 1.7 1.5 2.5 2.3.1.1.2.1.3.1.2 0 .3-.2.3-.4l-.3-1.6c.4.3.7.7 1 1zm26.6 29.5c-.4-.8-.9-1.6-1.4-2.3-.7-.9-1.2-1.8-2.2-2.6-.9-.6-1.7-1.3-2.5-2.1s-1.6-1.5-2.2-2.4c.4 1 1.1 1.9 1.8 2.8.7.9 1.5 1.7 2.4 2.3.8.6 1.4 1.5 2.1 2.4.6.9 1.3 1.8 1.9 2.7 0 .1.1.1.2.1s.2-.1.2-.2v-2.9c0 .8-.2 1.5-.3 2.2zM66 158.6c.4-1.3 1-2.6 1.6-3.8v-.1c0-.2-.1-.4-.3-.4l-1.7-.1c.6-.7 1.3-1.3 2.1-1.9.9-.7 1.9-1.3 3-1.8.1 0 .1-.1.2-.2.1-.2 0-.4-.2-.4-.8-.4-1.6-.7-2.4-1.1 1.1-.5 2.1-1 3.2-1.5.6-.3 1.3-.6 1.9-.8.7-.2 1.3-.5 2-.6-.7 0-1.4.2-2.1.4-.7.2-1.3.4-2 .7-1.3.5-2.6 1.1-3.9 1.6-.1 0-.1.1-.1.1-.1.1 0 .3.1.4.8.4 1.5.8 2.3 1.1-.9.4-1.7.9-2.5 1.5-1 .7-1.9 1.6-2.6 2.6 0 .1-.1.1-.1.2 0 .2.1.4.3.4l1.8.1c-.5 1.1-.9 2.3-1.3 3.4-.4 1.3-.7 2.7-.7 4.1v.1c.1.1.1.1.2 0 .7-.6 1.4-1.3 2.1-2-.7.5-1.3 1-2 1.6.4-1.2.7-2.4 1.1-3.6zm71.1-4.8c1.4.8 2.8 1.6 4.1 2.4l-2.1.5h-.1c-.1.1-.1.2-.1.4.9 1.3 1.8 2.7 2.5 4.1.6 1.2 1.1 2.5 1.4 3.8l-1.8-.9c-.1 0-.2-.1-.2 0-.2.1-.3.2-.3.4.3 1.4.6 2.8.7 4.3.1 1.4.1 2.9-.1 4.3s-.6 2.8-1.1 4.2c-.4 1-.8 2.1-1.3 3l-.7-5.1c0-.1-.1-.2-.2-.2s-.3 0-.3.2c-.4 1.6-1 3.1-1.6 4.6-.6 1.4-1.2 2.9-2 4.2l-.4-2.4.2 2.6v.1h.1c.9-1.4 1.6-2.8 2.3-4.3.5-1.2.9-2.4 1.4-3.6l.6 5.1c0 .1.1.2.2.2.1.1.4 0 .4-.1.7-1.3 1.3-2.7 1.8-4.1.5-1.4.9-2.8 1.2-4.3.2-1.5.3-3 .1-4.5-.1-1.2-.3-2.5-.6-3.7l1.8.9h.2c.2 0 .3-.2.3-.4-.2-1.7-.9-3.2-1.7-4.6-.7-1.3-1.5-2.6-2.4-3.8l2.2-.6c.1 0 .1-.1.1-.1.1-.1 0-.2-.1-.3-1.6-.9-3.1-1.7-4.8-2.5l-2.4-1.2c-.8-.4-1.6-.8-2.5-.9.9.2 1.7.7 2.5 1 1.2.4 2 .9 2.7 1.3zm-16.9 46.3c.2-1 .5-2 .7-3.1-.4 1.1-.7 2.2-1.1 3.4v.1c0 .1.1.1.2.1 1.1-.5 2.1-1 3.1-1.5l1.5-.9c.5-.3 1-.8 1.4-1.2 1.4-1.5 2.7-3.1 4-4.6l.2 2.1c0 .1.1.1.1.2.1.1.3.1.5 0 1.1-1.2 2-2.6 3-3.9.5-.7.9-1.4 1.3-2.1.4-.7.8-1.4 1-2.2-.3.8-.8 1.4-1.2 2.1-.5.7-1 1.3-1.5 1.9-.8 1.1-1.7 2.1-2.6 3.2l-.2-2.2c0-.1-.1-.2-.1-.2-.1-.1-.4-.1-.5.1l-2.2 2.7c-.7.9-1.5 1.8-2.2 2.6-.4.4-.8.8-1.2 1.1-.5.3-.9.6-1.4.9-1 .4-1.9.9-2.8 1.4zm-6.1-22.5c.9.1 1.8.1 2.6.1-.7-.1-1.4-.3-2.1-.4.6-.3 1.1-.6 1.7-1 .7-.5 1.3-.9 1.9-1.5 1.2-1 2.4-2.1 3.6-3.2.1-.1.1-.1.1-.2 0-.2-.1-.4-.3-.4l-2.4-.2c.8-.7 1.6-1.4 2.4-2.2.5-.5.9-1 1.3-1.6.4-.6.8-1.2.9-1.8-.3.6-.7 1.2-1.1 1.7-.4.5-.9 1-1.4 1.4-1 .9-2 1.7-3.1 2.5-.1.1-.1.1-.1.2 0 .2.1.4.3.4l2.4.2c-1 .9-1.9 1.8-2.9 2.7-1.2 1-2.4 2.1-3.7 2.9-.1 0-.1.1-.1.1-.2.2-.1.3 0 .3z" fill="#007575" stroke-width="none" opacity="1"></path><path id="SvgjsPath7309" d="M173.8 199.7c-.3-3.4-.7-6.8-1.4-10.1-.2-.9-.4-1.7-.6-2.5-.3-.9-.5-1.7-1.1-2.6-.2-.2-.4-.5-.7-.7-.3-.2-.4-.2-.6-.3-.4-.2-.9-.4-1.3-.5s-.9-.2-1.5-.3h-.8c-1-1.7-2.5-2.9-3.9-3.9-1.7-1.2-3.4-2.1-5.2-3l-3.6-1.5c-.3-2.6-.8-5.1-1.5-7.6-.8-2.6-1.8-5.2-3.3-7.5l4.4 1.1h.3c.2-.1.3-.3.2-.5-.6-1.4-1.5-2.4-2.4-3.6-.9-1.2-2.2-2.3-3.3-3.3-1.9-1.7-3.6-2.3-6-3.1l1.6-.6c.1 0 .2-.1.2-.2.1-.2 0-.5-.2-.6-1.1-.6-2.1-1-3.2-1.4-1.1-.4-2.2-.7-3.4-1-1.1-.2-2.3-.4-3.5-.4-.8 0-1.5.1-2.3.1.1-.1.2-.3.3-.4.1-.1.1-.2.2-.3 0-.1.1-.2.1-.5 0-.1-.1-.2-.2-.4-.1-.1-.2-.1-.3-.1h-.1l-.3-.1-.6-.1-1.1-.2c-1.5-.3-4.6-.4-6.2-.5-.4 0-.8 0-1.3.1-.1 0-.3.1-.4.2-.1.1-.3.4-.3.5l-.1.6c-.1.8-.2 1.5-.4 2.2-.3 1.5-.6 3-1.1 4.4v.3c.1.2.3.4.6.4l.7-.2c-.1.3-.5.9-1 1.6-.5.7-.9 1.4-1.4 2.2-.2.4-.4.8-.6 1.3-.1.5-.2 1.1.1 1.7v.1c.2.2.4.3.7.1l1.5-1.1c-.7.9-1.5 1.8-2 3.1-.3 1.1-1.1 2.1-1.9 3-.8.9-1.7 1.9-2.6 2.7-.1.1-.2.3-.1.5s.4.4.6.3l4.4-1.6c-.4.3-.7.6-1.1.9-1 .8-2.1 1.5-3.2 2.1-.6.3-1.1.6-1.7.9-.6.3-1.2.7-1.7 1.1-1.1.9-2 1.8-2.5 3.3v.2c0 .3.2.5.5.4l2.5-.2c-1 .4-2 1-2.9 1.7-1 .7-1.8 1.7-2.4 2.7-.6 1.1-1.1 2.2-1.3 3.4v.2c.1.2.3.3.6.2l1.5-.6-1.4 2.4c-.7-1.1-1.3-2.2-1.9-3.4-.4-.7-.7-1.3-1.1-2.1-.4-.7-1-1.3-1.6-1.8l-1.8-1.5-.9-.7-.1-.1c.5.1 1.1.2 1.7.3.7.2 1.5.4 2.2.6.1 0 .2 0 .3-.1.1-.1.1-.3 0-.5-1.7-1.6-3.6-2.9-5.5-4-1-.6-2-1.1-3.1-1.5-.8-.3-1.7-.6-2.5-.8l1.8-.9c.1 0 .2-.1.2-.2s-.1-.3-.2-.3c-1.4-.1-2.8-.4-4.1-.9-1.3-.5-2.5-1.2-3.4-2.3-.9-1-1.7-2.2-2.4-3.4-.7-1.1-1.2-2.2-1.8-3.3l2.1.8h.2c.1-.1.1-.2.1-.2-.9-1.4-1.8-2.9-2.4-4.5-.3-.7-.2-2.7-.1-4.1v-1.6L80 145c-.1-.6-.3-1.2-.8-1.7l-.3-.3c-.3-.2-.5-.4-.8-.5-.2-.1-.5-.1-.7-.2-1.1-.1-2.2-.1-3.5-.1s-2.6.2-3.8.4c-1.3.2-2.5.5-3.7.9-1.2.4-2.4.9-3.5 1.5l-.1.1c0 .1 0 .2.1.2l2 1c-1.1.4-2.1.8-3.1 1.4-1.1.6-2.2 1.3-3.2 2.1-2 1.6-3.6 3.7-4.7 6v.1c0 .1.1.3.2.3l1.8.2c-1.5 1.9-2.9 3.9-4 6-.6 1.1-1.2 2.3-1.6 3.5-.5 1.2-.8 2.4-1.2 3.7v.1c0 .2.2.3.3.3l1.7-.1c-.4 1.4-.8 2.8-1 4.2l-.9.3c-1.8.6-3.7 1.3-5.5 2.1-1.8.8-3.5 1.7-5.2 2.8-1.5 1-3 2.3-4 4-.8-.1-1.6 0-2.4.1-.4.1-.9.3-1.3.5l-.6.3c-.3.2-.5.4-.6.6-.6.8-.9 1.6-1.1 2.5-.3.8-.5 1.7-.7 2.5-.7 3.4-1.2 6.7-1.5 10.1-.6 6.8-.9 13.5-1 20.3 0 .5.4.9.8.9 6.1 0 12.3.1 18.4 0 6.2 0 12.3 0 18.4-.1l18.4-.2 9.2-.1 9.2-.1h2.7v.1h4v-.1h11.8c6.2 0 12.3 0 18.4.1l36.9.4c.4 0 .8-.4.8-.8.3-7.1.1-13.9-.5-20.6zm-71.1 20H100l-9.2-.1-9.2-.1-18.4-.2c-6.2-.1-12.3-.1-18.4-.1h-1.4c.2-2.9.3-5.8.2-8.6 0-3-.2-5.9-.5-8.9-.2-1.5-.3-2.9-.6-4.4-.1-.7-.3-1.5-.5-2.2-.2-.8-.5-1.5-.9-2.2-1.4-2.7-3.1-5.1-5.2-7.3 1.3 2.7 2.7 5.3 3.7 7.9.3.7.5 1.4.6 2l.3 2.1c.2 1.4.3 2.9.5 4.3.3 2.9.6 5.8 1 8.8.3 2.8.7 5.7 1.3 8.5H27.2c0-6.4.2-12.9.8-19.3.3-3.4.6-6.7 1.3-10l.6-2.4c.2-.8.5-1.6.9-2.1l.3-.3c.1-.1.3-.2.5-.3.4-.2.7-.3 1.1-.4.7-.2 1.6-.3 2.2-.1.2.1.5-.1.6-.3.7-1.6 2.2-2.9 3.8-4.1 1.5-1.1 3.2-2.1 5-2.9s3.5-1.6 5.3-2.3c.2-.1.4-.2.7-.2 0 .1 0 .2-.1.4-.1.9-.2 1.9-.2 2.9s.2 1.9.6 2.9c0 0 0 .1.1.1.2.1.4.1.5-.1l1.4-1.7c.8 1.8 1.7 3.6 2.8 5.2.6.9 1.3 1.8 2 2.6s1.6 1.5 2.4 2.2c.1.1.2.1.3.1.2 0 .4-.2.4-.4l-.2-2.3c.7 1 1.5 1.9 2.2 2.8 1.2 1.3 2.4 2.6 3.7 3.7 1.3 1.1 2.7 2.2 4.1 3.2 1.4 1 2.9 1.9 4.4 2.7.1 0 .2.1.2.1.2 0 .4-.2.4-.5L75 195c1.5 1.6 3.1 3.1 4.8 4.6 2 1.7 4.2 3.2 6.6 4.3.1 0 .2.1.3 0 .2-.1.3-.3.2-.5l-1-3c2.1 1.9 4.3 3.9 6.5 5.8.1 0 .1.1.2.1.2 0 .3-.1.4-.3l.3-2.3c1 .9 2 1.8 3.1 2.7 1.2 1 2.5 2 3.8 2.8 1.1.5 1.9 1.4 2.5 2.5v8zm3.6-8.2-1.6 4.3c-.2-1.2-.5-2.4-1-3.6-.3-.7-.7-1.5-1.2-2.1l-.9-.9c-.3-.3-.7-.5-1-.7-1.3-.8-2.6-1.8-3.8-2.8-1.2-1-2.4-2.1-3.5-3.1-.1 0-.1-.1-.2-.1-.2 0-.3.1-.4.3l-.3 2.3c-2.3-2-4.6-4.1-6.9-6.2-.1-.1-.2-.1-.3-.1-.2.1-.3.3-.2.4l1.1 3.4c-2-1.1-3.9-2.4-5.6-3.8-2-1.7-3.8-3.5-5.5-5.4-.1-.1-.2-.1-.3-.1-.2 0-.4.2-.4.4l.3 3.9c-1.2-.7-2.5-1.4-3.6-2.3-1.4-1-2.7-2.1-4-3.2a30.6 30.6 0 0 1-3.6-3.6c-1.1-1.3-2.2-2.6-3.1-4-.1-.1-.2-.2-.4-.2s-.4.2-.4.4l.3 2.9c-.5-.5-1.1-1-1.6-1.5-.7-.8-1.4-1.6-2-2.5-1.2-1.7-2.3-3.6-3-5.6 0-.1-.1-.1-.1-.1-.2-.1-.4-.1-.5.1l-1.4 1.7c-.2-.6-.3-1.3-.4-2 0-.9 0-1.8.1-2.7.2-1.8.7-3.6 1.2-5.4v-.1c0-.2-.2-.3-.3-.3l-1.7.2c.3-1.1.6-2.2 1-3.2.5-1.2 1-2.3 1.6-3.5 1.2-2.2 2.6-4.4 4.2-6.3l.1-.1c0-.1-.1-.3-.2-.3l-1.9-.2c1-2.1 2.5-4 4.3-5.5 1.9-1.6 4.1-2.9 6.5-3.6l.1-.1c.1-.1 0-.2-.1-.2l-2-1c1-.5 2.1-1 3.2-1.4 1.2-.4 2.4-.7 3.7-.9 1.2-.2 2.5-.4 3.8-.4 1.2-.1 2.3 0 3.5 0 .2.1.4.1.6.2.7.4 1.2.7 1.4 1.3.5 1.6-.1 6.1 0 7.1.1.9.4 1.7.7 2.5.6 1.4 1.3 2.9 2.1 4.2l-2.1-.8h-.2c-.1 0-.1.2-.1.2.6 1.3 1.2 2.6 2 3.8.7 1.2 1.5 2.4 2.5 3.5.9 1.1 2.3 1.9 3.6 2.4 1.1.4 2.1.7 3.2.9l-1.7.8c-.1 0-.1.1-.2.2 0 .1.1.3.2.3 1.1.3 2.2.6 3.2 1s2 .9 3 1.4c1.5.9 3 1.9 4.3 3-.3-.1-.6-.2-.9-.2-.8-.2-1.5-.4-2.3-.4H97c-.1 0-.1 0-.2.1-.1 0-.2.2-.2.4s.1.2.1.3c0 .1.1.1.1.1l.4.4.9.7c.6.5 1.2 1 1.7 1.5s1.1 1.1 1.4 1.7c.3.6.7 1.4 1.1 2 .7 1.4 1.5 2.7 2.3 4 0 .1.1.1.1.1.2.1.4.1.5-.1.9.9 1.8 1.8 2.6 2.7.7.9 1.3 1.9 1.7 2.9l-2.8-1.5c-.1-.1-.3-.1-.4.1-.2.1-.2.4 0 .5.9 1 1.7 2 2.4 3.1s1.4 2.2 1.8 3.4c.2.5.2 1 .3 1.6.1.6.1 1.6.1 2.2 0 .8-.1 1.5-.2 2.3l-1.3-2.9c-.1-.2-.3-.3-.5-.3s-.4.2-.4.5c.2 2 .3 3.9.3 5.9 0 1-.1 2-.3 2.9-.2.8-.5 1.6-.9 2.2l-.5-2.4c0-.1-.1-.1-.1-.1-.1 0-.1.1-.1.1 0 1-.1 1.9-.1 2.9-.4 0-.5 0-.5.1zm.2-.1c.1-.6.1-1.2.2-1.8l.2 1.8v.1c.1.1.2.1.3.1.5-.4.8-.8 1-1.3.2-.5.4-1 .5-1.5.3-1 .4-2 .4-3 .1-1.1.1-2.3 0-3.4l.9 2.1.3.3c.3.1.5-.1.6-.4.3-1.3.4-2.7.4-4 0-.7 0-1.4-.1-2 0-.3-.1-.7-.1-1-.1-.4-.1-.7-.3-1-.4-1.3-1.2-2.5-1.9-3.6-.4-.6-.8-1.1-1.3-1.7l1.8.8h.2c.2-.1.2-.2.2-.4-.4-1.4-1.3-2.6-2.2-3.6-.8-.9-1.8-1.8-2.8-2.5l2.6-4.1c.1-.1.1-.3 0-.4-.1-.2-.3-.3-.6-.2l-2 .8c.2-.8.6-1.6 1-2.3.6-.9 1.3-1.8 2.2-2.4.9-.7 1.9-1.2 2.9-1.6 1.1-.4 2.2-.8 3.2-1 .2-.1.4-.3.4-.5 0-.3-.2-.5-.5-.5l-5.4.3c.4-.8 1.1-1.5 1.8-2.1.5-.4 1-.7 1.6-1 .5-.3 1.1-.6 1.7-.9 1.2-.6 2.3-1.4 3.3-2.2 1.1-.8 2-1.7 3-2.6.1-.1.2-.3.1-.5s-.4-.4-.6-.3l-4.6 1.6c.4-.4.8-.8 1.1-1.3l1.2-1.5c.2-.3.4-.6.5-.9.1-.2.2-.3.2-.5l.2-.5c.4-1 1.2-2 2-3s1.6-1.9 2.5-2.8c.2-.2.2-.4 0-.6-.2-.2-.5-.3-.7-.1l-4.2 3c.1-.4 0-1.3 1.7-3.6 1.1-1.4.9-1.4 2.1-2.6.1-.1.2-.3.1-.4-.1-.3-.3-.4-.6-.4l-1.5.4c.4-1.2.7-2.5.9-3.7.1-.8.3-1.5.4-2.3l.1-.6h.1c.2-.1.6-.1 1-.1 1.4.1 4.6.1 6 .5l1.1.2.6.1c-.1.1-.2.3-.3.4-.2.3-.5.6-.7.9-.1.1-.1.3-.1.4.1.2.3.4.6.4 1.1-.2 2.2-.4 3.3-.4 1.1 0 2.2.1 3.3.4 1.1.2 2.2.5 3.2.9l2.1.9-1.9.6-.3.3c-.1.2.1.5.3.6 2.7.8 3.8 1.4 6.8 3.4 1.1.9 2.4 1.9 3.2 3 .7.9 1.6 1.7 2.1 2.7l-4.6-1.1c-.1 0-.2 0-.3.1-.2.1-.2.4-.1.6 1.9 2.4 3.1 5.2 3.9 8.1.7 2.3 1.3 5.6 1.6 8-.4-.1-1.8-1.5-2-1.6l-.9-.8c-.1-.1-.1-.1-.2-.1-.2 0-.3.1-.3.3.1 2.4-.2 4.8-.7 7.2-.5 2.1-1.1 4.1-2 6.1l-.4-2.1c0-.1-.1-.2-.2-.2-.1-.1-.3 0-.3.1-.5 1.2-1.1 2.4-1.8 3.5s-1.5 2.2-2.3 3.3c-1.5 2-3.2 3.9-4.9 5.7l-.3-2.1c0-.1-.1-.1-.1-.2-.1-.1-.2 0-.3.1-.5 1.1-1.3 2.1-2.1 3.1-.8.9-1.8 1.8-2.7 2.6-1.8 1.6-3.7 3-5.7 4.3l.7-3.6v-.1c-.1-.1-.2-.1-.2 0l-7.1 6.9-1.4-.7c-.1 0-.2 0-.2.1l-2.2 3.2v-1.5c0-.1 0-.1-.1-.1-.1-.1-.2-.1-.3 0l-6.4 5.4-1-2.1c.2-.2.2-.3.1-.3.1 0 0 0 0 0zm50.1 8c.6-2.9.9-5.9 1.3-8.8.4-2.9.6-5.9 1-8.8.1-1.4.3-2.9.5-4.3l.3-2.1c.1-.6.4-1.3.6-2 1.1-2.7 2.4-5.3 3.7-7.9-2 2.2-3.8 4.6-5.1 7.3-.4.7-.7 1.4-.9 2.2-.2.8-.4 1.5-.5 2.2-.3 1.5-.4 2.9-.6 4.4-.3 2.9-.5 5.9-.5 8.9-.1 2.9-.1 5.9.2 8.9l-19.7.2c-6.1.1-12.3.1-18.4.1h-11.7v-7.2l.8 1.6v.1c.1.1.2.1.3 0l6.3-5.4v1.7c0 .1 0 .1.1.2s.2 0 .3-.1l2.4-3.6 1.4.7h.2l6.8-6.6-.7 3.6v.1c.1.1.2.1.2.1 2.1-1.4 4.2-2.9 6.1-4.6 1-.8 1.9-1.7 2.8-2.7.7-.8 1.4-1.6 1.9-2.6l.3 1.9c0 .1 0 .1.1.1.1.1.2.1.3 0 1.9-1.9 3.6-4 5.3-6.1.8-1.1 1.6-2.1 2.3-3.3.6-.9 1.1-1.8 1.6-2.8l.4 2.1c0 .1.1.1.1.2.1.1.3 0 .4-.1.6-1.1 1.1-2.2 1.5-3.4.4-1.2.8-2.3 1-3.5.4-1.6.6-3.2.7-4.8 2.1.7 4.1 1.5 6.1 2.4 1.7.8 3.4 1.7 4.9 2.8 1.5 1 2.9 2.3 3.6 3.8l1.3.5h.8c.3 0 .7.1 1 .2.4.1.7.2 1 .4.1.1.4.2.5.2l.2.2c.3.5.6 1.3.9 2l.6 2.4c.7 3.2 1.1 6.6 1.4 9.9.6 6.4.9 12.9 1 19.3h-16.4z" fill="#007575" stroke-width="none" opacity="1"></path></g><g id="svga-group-head" transform="matrix(1,0,0,1,0,0)"><g id="svga-group-ears-left-move" transform="matrix(1,0,0,1,0,0)"><g id="svga-group-ears-left" transform="matrix(1,0,0,1,0,0)"><path id="SvgjsPath4479" d="M61.4 94.2s-2.5-4.6-5-5.4-4.1.7-3.7 6.2 4.9 21.8 9.9 20.8.9-18.4-1.2-21.6z" fill="#b4d46c" stroke-width="none" opacity="1" stroke="none"></path><path id="SvgjsPath4480" d="M62.3 96c.3.7.5 1.4.8 2.1.5 1.4.9 2.9 1.3 4.5.4 1.5.7 3.2.9 4.8.1.8.2 1.7.2 2.6s0 1.7-.1 2.6c-.1.8-.3 1.7-.6 2.3-.3.7-.7 1.1-1.2 1.4-.9.5-1.8.4-2.7-.1s-1.7-1.5-2.4-2.5c-.7-1.1-1.3-2.4-1.9-3.7-.6-1.3-1.1-2.8-1.5-4.2-.5-1.4-.9-2.9-1.3-4.4-.4-1.5-.8-3.1-1.1-4.7s-.4-3.4-.3-5.1c.1-.8.3-1.7.7-2.3.3-.6.8-.9 1.2-1.1s.9-.1 1.3-.1c.4.1.9.3 1.3.5.8.5 1.6 1.4 2.4 2.4.7 1 1.4 2 2.1 3.2.3.5.6 1.1.9 1.8zm-3.1-4.7c-.8-.8-1.5-1.5-2.3-1.8s-1.6-.4-2.3-.1c-.4.2-.7.4-.9.8-.3.4-.4 1-.5 1.7-.2 1.4-.1 3 .1 4.5.2 1.6.5 3.1.9 4.7.7 3 1.7 5.9 2.9 8.3.6 1.2 1.2 2.3 1.9 3.3.7.9 1.4 1.7 2.2 2.1.4.2.8.3 1.2.3s.8-.1 1.1-.3c.3-.2.6-.6.8-1 .2-.5.4-1.1.5-1.8.2-1.4.1-2.9 0-4.5s-.4-3.1-.6-4.7c-.3-1.6-.6-3.1-1-4.6s-.9-2.9-1.6-4c-.9-1.1-1.6-2.1-2.4-2.9z" fill="#a1c551" stroke-width="none" opacity="1" stroke="none"></path><path id="SvgjsPath4481" d="M55.4 92.2c2.2 1.4 4.1 5.4 5.1 9.3v.1c0 .3-.2.3-.2.1-.4-1.1-.8-1.1-1.4 0-.1.7-.1 1.4.1 2.2.1.7.4 1.3.6 1.9.5 1.1 1.1 2 1.7 2.9.2.3 0 .7-.2.5-1.3-1-3.2-4.4-2.8-7.4.2-1.4.9-2.1 1.5-1.6-.7-2-1.6-3.8-2.6-5.2-.6-.8-1.9-2.6-2.6-2.3-1.2.5-.5 4.5-.4 6.2 0 .3-.2.3-.3.1-.7-2.9-.8-8.3 1.5-6.8z" fill="#8fb538" stroke-width="none" opacity="1" stroke="none"></path><path id="SvgjsPath4482" d="M60.6 110c-2.3-.9-3.9-4.5-4.9-8.5-.6-2.4-1.7-8 .5-8 .2 0 .3.5.1.6-2.1 1.1.2 8.6.8 10.4.9 2.5 2.1 4.1 3.5 5.1.1.1.1.5 0 .4z" fill="#8fb538" stroke-width="none" opacity="1" stroke="none"></path></g></g><g id="svga-group-ears-right-move" transform="matrix(1,0,0,1,0,0)"><g id="svga-group-ears-right" transform="matrix(1,0,0,1,0,0)"><path id="SvgjsPath4483" d="M138.6 94.2s2.5-4.6 5-5.4 4.1.7 3.7 6.2c-.5 5.5-4.9 21.8-9.9 20.8-5.1-.9-.9-18.4 1.2-21.6z" fill="#b4d46c" stroke-width="none" opacity="1" stroke="none"></path><path id="SvgjsPath4484" d="M138.6 94.1c.6-1.2 1.3-2.2 2.1-3.2.7-1 1.5-1.8 2.4-2.4.4-.2.9-.5 1.3-.5.4-.1.9-.1 1.3.1s.9.5 1.2 1.1.6 1.4.7 2.3c.2 1.7 0 3.5-.3 5.1s-.7 3.2-1.1 4.7c-.4 1.5-.8 3-1.3 4.4s-1 2.9-1.5 4.2c-.6 1.3-1.2 2.6-1.9 3.7s-1.5 2-2.4 2.5-1.8.6-2.7.1c-.4-.3-.8-.7-1.2-1.4-.3-.7-.5-1.5-.6-2.3-.1-.9-.1-1.7-.1-2.6s.1-1.7.2-2.6c.2-1.7.5-3.3.9-4.8s.8-3 1.3-4.5c.3-.7.5-1.4.8-2.1l.9-1.8zm.1.1c-.7 1.1-1.1 2.6-1.6 4-.4 1.5-.7 3-1 4.6s-.5 3.1-.6 4.7c-.1 1.5-.2 3.1 0 4.5.1.7.2 1.3.5 1.8.2.5.5.8.8 1s.7.3 1.1.3c.4 0 .8-.1 1.2-.3.8-.4 1.5-1.2 2.2-2.1.7-1 1.3-2.1 1.9-3.3 1.2-2.5 2.2-5.3 2.9-8.3.4-1.5.7-3.1.9-4.7.2-1.5.2-3.2.1-4.5-.1-.7-.3-1.2-.5-1.7-.3-.4-.6-.7-.9-.8-.7-.3-1.6-.2-2.3.1-.8.3-1.6 1-2.3 1.8-1.1.8-1.8 1.8-2.4 2.9z" fill="#a1c551" stroke-width="none" opacity="1" stroke="none"></path><path id="SvgjsPath4485" d="M139.4 110c2.3-.9 3.9-4.5 4.9-8.5.6-2.4 1.7-8-.5-8-.2 0-.3.5-.1.6 2.1 1.1-.2 8.6-.8 10.4-.9 2.5-2.1 4.1-3.5 5.1-.1.1-.1.5 0 .4z" fill="#8fb538" stroke-width="none" opacity="1" stroke="none"></path><path id="SvgjsPath4486" d="M144.6 92.2c-2.2 1.4-4.1 5.4-5.1 9.3v.1c0 .3.2.3.2.1.4-1.1.8-1.1 1.4 0 .1.7.1 1.4-.1 2.2-.1.7-.4 1.3-.6 1.9-.5 1.1-1.1 2-1.7 2.9-.2.3 0 .7.2.5 1.3-1 3.2-4.4 2.8-7.4-.2-1.4-.9-2.1-1.5-1.6.7-2 1.6-3.8 2.6-5.2.6-.8 1.9-2.6 2.6-2.3 1.2.5.5 4.5.4 6.2 0 .3.2.3.3.1.7-2.9.8-8.3-1.5-6.8z" fill="#8fb538" stroke-width="none" opacity="1" stroke="none"></path></g></g><g id="svga-group-faceshape-wrap" transform="matrix(1,0,0,1,0,0)"><g id="svga-group-faceshape-single"><path id="SvgjsPath3546" d="M100 41.3c-21.4 0-39.8 15.6-41 44.1 0 0 .1 18.1 3.7 29 3 9.1 5.4 16.1 12.9 22.2 5.2 4.2 15 9.9 20.5 12.9 2.5 1.4 5.4 1.4 7.9 0 5.5-3 15.3-8.7 20.5-12.9 7.4-6.1 9.8-13.1 12.9-22.2 3.6-10.9 3.7-29 3.7-29-1.3-28.4-19.7-44.1-41.1-44.1z" fill="#b4d46c" stroke-width="none" opacity="1" stroke="none"></path><path id="SvgjsPath3547" d="M100 41.3c-21.4 0-39.8 15.6-41 44.1 0 0 .1 18.1 3.7 29 3 9.1 5.4 16.1 12.9 22.2 5.2 4.2 15 9.9 20.5 12.9 2.5 1.4 5.4 1.4 7.9 0 5.5-3 15.3-8.7 20.5-12.9 7.4-6.1 9.8-13.1 12.9-22.2 3.6-10.9 3.7-29 3.7-29-1.3-28.4-19.7-44.1-41.1-44.1zm29.8 15.5.6.9.3.5.3.5c3.2 5.1 5.3 10.9 6.4 16.8.1.4.1.7.2 1.1l.2 1.1c.1.4.1.7.2 1.1l.3 2.3.1 1.1c.1.8.1 1.5.1 2.2v.6s-.1 3.1-.1 3.9c-.1 1.5-.2 3.1-.3 4.6-.2 3.1-.5 6.2-.9 9.2l-.3 2.3-.4 2.3-.4 2.2-.5 2.2-.6 2.1-.7 2.2c-.5 1.5-1 2.9-1.5 4.4-1.1 2.9-2.3 5.6-3.8 8-1.6 2.5-3.5 4.6-5.8 6.5s-4.8 3.7-7.4 5.4c-1.3.9-2.6 1.7-3.9 2.6-1.3.8-2.6 1.7-4 2.5-1.3.8-2.7 1.6-4 2.5 0 0-1.5.8-1.8.9-.6.2-1.3.3-1.9.4-.7 0-1.3 0-2-.2-.3-.1-1.9-.8-1.9-.8-1.4-.7-2.8-1.4-4.2-2.2-1.4-.7-2.8-1.5-4.1-2.3-1.4-.8-2.7-1.6-4-2.4-1.3-.8-2.7-1.7-3.9-2.5-1.3-.9-2.6-1.8-3.8-2.7-2.4-1.9-4.5-4.2-6.2-6.8-1.7-2.6-2.9-5.4-3.9-8.3-.5-1.5-2.5-8.3-2.7-9-.7-3-1.1-6.1-1.4-9.1-.3-3.1-.5-6.2-.6-9.3-.1-1.6-.1-3.1-.2-4.7v-4s.1-2.1.2-2.8l.3-2.3.6-3.3c.59-4.01 3.5-12.8 6.7-17.9l.3-.5.3-.5.6-.9c.2-.3 1.2-1.5 1.4-1.8 1-1.2 2-2.3 3.1-3.4.3-.3.6-.5.8-.8l.9-.8c.6-.5 1.2-1 1.8-1.4.3-.2 1.5-1.1 1.9-1.3l1-.6 1-.6s1.7-.9 2-1.1l2.1-.9c.4-.2 2.2-.8 2.2-.8s1.8-.5 2.2-.6c.8-.2 3.5-.7 3.5-.7l1.2-.2c.8-.1 3.1-.2 3.5-.2 0 0 5.2.2 5.9.3l2.4.4c.8.1 1.5.3 2.3.5.4.1.8.2 1.1.3l2.2.7c.4.1 2.5 1 3.2 1.3.3.2 2 1.1 2 1.1l.5.3.5.3 1 .6c.3.2.6.4 1 .6.3.2.6.4.9.7.6.5 1.2.9 1.8 1.4l.9.8c.3.3.6.5.8.8 1.1 1 2.1 2.2 3.1 3.4.1.3 1.1 1.5 1.3 1.8z" fill="#7ea623" stroke-width="none" opacity="1" stroke="none"></path></g></g><g id="svga-group-mouth-single-move" transform="matrix(1,0,0,1,0,0)"><g id="svga-group-mouth-single" transform="matrix(1,0,0,1,0,0)"><path id="SvgjsPath6387" d="M87.37 125.93s1.12 4.65 4.76 7.15c3.64 2.5 9.31 2.85 13.38 1.21 4.07-1.64 6.77-5.97 7.12-7.11 0 0-20.18-.45-20.32-.49s-4.94-.76-4.94-.76z" fill="#b85378" stroke-width="none" opacity="1" transform="translate(0 3)"></path><path id="SvgjsPath6388" d="M86.29 125.34s2.21 2.8 6.33 3.78c2.69.64 5.63-.21 6.96-.36s1.97.36 4.15.64 6.33.14 10.06-2.78c0 0-2.04.5-3.38-.43s-2.88-3.21-7.66-3.92-8.23-.14-11.25 1.36c-3.03 1.5-3.73 1.92-5.21 1.71z" fill="#b0476d" stroke-width="none" opacity="1" transform="translate(0 3)"></path><path id="SvgjsPath6389" d="M86.08 125.64c1.36 1.69 3.21 2.75 5.27 3.39 2.54.78 4.71.27 7.28.04 2.94-.27 5.68 1.1 8.66.68 2.34-.33 4.57-1.41 6.54-2.68.56-.37-.01-1.28-.52-.89-2.09 1.6-4.46 2.74-7.15 2.68-2.3-.06-4.4-1.1-6.74-.84-2.02.22-3.9.97-5.96.78-2.8-.26-4.91-1.76-6.77-3.75-.39-.42-.95.17-.61.59z" fill="#a93b63" stroke-width="none" opacity="1" transform="translate(0 3)"></path><path id="SvgjsPath6390" d="M89.91 126.96c2.22 2.07 5.07 1.03 7.71.53 3.67-.69 7.27 1.65 10.87.51.21-.07.19-.42-.05-.4-3.01.24-5.45-1.84-8.45-1.66-3.45.22-6.63 3.22-10.02.94-.05-.03-.1.04-.06.08z" fill="#c06083" stroke-width="none" opacity="1" transform="translate(0 3)"></path><path id="SvgjsPath6391" d="M108.59 130.42c-.95.98-1.89 1.9-3.13 2.5-1.38.67-2.74.71-4.23.85-.35.03-.46.54-.09.64 2.84.76 6.56-1.1 7.87-3.67.13-.26-.2-.55-.42-.32z" fill="#c06083" stroke-width="none" opacity="1" transform="translate(0 3)"></path><path id="SvgjsPath6392" d="M87.47 125.61c2.67.29 4.92-2.02 7.47-2.57 3.41-.73 6.76-.31 10.12.42.28.06.37-.31.12-.42-2.62-1.11-5.96-1.09-8.73-.75-1.23.15-2.47.4-3.62.87-1.88.77-3.26 2-5.36 2.25-.12.02-.12.19 0 .2z" fill="#c76e8f" stroke-width="none" opacity="1" transform="translate(0 3)"></path></g></g><g id="svga-group-eyes-left-move" transform="matrix(1,0,0,1,0,0)"><g id="svga-group-eyes-left" transform="matrix(1,0,0,1,0,0)"><g id="svga-group-eyesback-left"><path id="SvgjsPath7264" d="M90.9 101.3s-.3-2.5-1-3.8-3.7-4.4-7-5c-4.9-1-9.3 1.7-9.3 1.7s0 2.4 1.5 4.1c1.4 1.7 3.9 2.6 4.9 2.7s4.6.3 6.5 0c1.3-.2 2.8-.2 3.4 0 .5.2 1 .3 1 .3z" fill="#ffffff" stroke-width="none" opacity="1"></path></g><g id="svga-group-eyesiriswrapper-left" transform="matrix(1,0,0,1,0,0)"><g id="svga-group-eyesiriscontrol-left" transform="matrix(1,0,0,1,0,0)"><g id="svga-group-eyesiris-left" transform="matrix(1,0,0,1,0,0)"><path id="SvgjsPath5039" d="M82 91c3 0 5.4 2.4 5.4 5.4s-2.4 5.4-5.4 5.4-5.4-2.4-5.4-5.4S79 91 82 91z" fill="#009494" stroke-width="none" opacity="1"></path><path id="SvgjsPath5040" d="M82 91.3c2.8 0 5.2 2.3 5.2 5.2s-2.3 5.2-5.2 5.2-5.2-2.3-5.2-5.2 2.3-5.2 5.2-5.2m0-.5c-3.1 0-5.7 2.6-5.7 5.7s2.6 5.7 5.7 5.7 5.7-2.6 5.7-5.7c0-3.2-2.6-5.7-5.7-5.7z" fill="#007575" stroke-width="none" opacity="1"></path><path id="SvgjsPath5041" d="M79.1 98c0 1.3.5 2.5 1.4 3.4.5.2 1 .2 1.5.2 2.8 0 5.2-2.3 5.2-5.2 0-1.1-.3-2-.9-2.8-.7-.4-1.5-.6-2.3-.6-2.7 0-4.9 2.2-4.9 5z" fill="#10a3a3" stroke-width="none" opacity="1"></path><path id="SvgjsPath5042" d="M82 93.6c1.5 0 2.8 1.3 2.8 2.8s-1.3 2.8-2.8 2.8-2.8-1.3-2.8-2.8 1.3-2.8 2.8-2.8z" fill="#000000" stroke-width="none" opacity="1"></path><path id="SvgjsPath5043" d="M80.7 93.6c.5 0 1 .4 1 1s-.4 1-1 1-1-.4-1-1 .5-1 1-1zm3.2 4.4c.2 0 .4.2.4.4s-.2.4-.4.4-.4-.2-.4-.4.2-.4.4-.4z" fill="#ffffff" stroke-width="none" opacity="1"></path><path id="SvgjsPath5044" d="M82 101.6c.3 0 .5 0 .8-.1-.2 0-.3-.2-.4-.4-.1.3-.3.4-.4.5-.3 0-.5-.2-.5-.4-.1.2-.4.3-.6.2-.2-.1-.4-.3-.4-.5-.2.2-.4.2-.6.1s-.3-.3-.3-.5c-.2.2-.5.1-.7 0s-.2-.5-.1-.7c-.2.2-.5.1-.7 0-.2-.2-.2-.5 0-.7-.3.1-.5-.1-.7-.3.8 1.7 2.6 2.8 4.6 2.8zm-4.7-3s0-.1 0 0c0-.1 0 0 0 0zm9 .7c-.1.1-.3.2-.5.2.1.4-.3.8-.8.8.1.2 0 .4-.2.6-.2.1-.4.1-.6 0 0 .2-.1.4-.3.5-.2.1-.5 0-.6-.2 0 .2-.1.4-.2.5 1.3-.5 2.5-1.3 3.2-2.4zm-1.9-7.2c.3-.1.6.2.5.5.3-.2.8.3.6.6.2-.1.4 0 .4.2.1.2.1.4-.1.5.2 0 .5.1.6.3s.1.5-.1.7c.2 0 .4.2.5.4.1.2 0 .5-.2.6.2.1.3.3.3.5s-.1.4-.3.5c.2.1.3.3.3.5s-.2.4-.4.4c.3.2.1.8-.2.8.1.1.1.3.1.5.5-.8.7-1.7.7-2.6 0-2.1-1.2-3.8-2.9-4.7.1 0 .2.2.2.3zm-.6-.3c.1-.1.2-.1.3 0-.5-.2-1-.4-1.5-.4v.1c.4-.2.9 0 1.2.3zm-5.6 7.1c.2 0 .3-.1.4-.2.2-.1.3-.2.5-.3v-.1c-.2.1-.3.1-.4.2-.2.2-.4.3-.5.4zM77 97.4c.1 0 .3 0 .4-.1.2 0 .3-.1.5-.1.1 0 0-.1 0-.1-.2 0-.3 0-.5.1-.1 0-.3 0-.4.2 0-.1 0 0 0 0zm.5-2.5c.4.2.8.3 1.2.4 0 0 .1 0 0-.1-.3-.2-.8-.3-1.2-.3 0-.1 0 0 0 0zm.2-.8c.2.2.4.3.7.4 0 0 .1 0 0-.1-.2-.1-.5-.2-.7-.3 0-.1-.1 0 0 0zm3.8 6.7c.1-.3.2-.7.2-1 0 0-.1-.1-.1 0-.1.3-.1.7-.1 1-.1 0 0 0 0 0zm3.5-4.1c.3.1.7.1 1.1.2v-.1c-.3 0-.7-.1-1.1-.1zm.3-.7c.3 0 .7.1 1 0v-.1c-.4 0-.7 0-1 .1zm.1-2.7c-.3.2-.7.5-.9.8 0 0 0 .1 0 0 .3-.3.7-.5.9-.8.1 0 .1-.1 0 0zM82.5 92c-.1.3-.2.5-.2.8 0 .1.1.1.1 0 .1-.3.2-.5.1-.8.1-.1.1-.1 0 0zm-2.9.3c.1.2.2.5.3.7h.1c-.1-.3-.2-.5-.4-.7 0-.1 0-.1 0 0z" fill="#007575" stroke-width="none" opacity="1"></path></g></g></g><g id="svga-group-eyesfront-left"><path id="SvgjsPath7272" d="M70.73 98.03c0 6.9 4.93 12.5 11.02 12.5s11.02-5.6 11.02-12.5-4.93-12.5-11.02-12.5-11.02 5.59-11.02 12.5zm2.88-3.78s4.42-2.71 9.34-1.75c3.29.64 6.2 3.74 6.95 5.03.75 1.28 1.03 3.82 1.03 3.82s-.53-.14-1.11-.32c-.57-.18-2.05-.19-3.39.04-1.89.32-5.46.18-6.45.04-1-.14-3.49-1.07-4.92-2.75-1.41-1.69-1.45-4.11-1.45-4.11z" fill="#b4d46c" stroke-width="none" opacity="1"></path><path id="SvgjsPath7273" d="M73.27 94.64c-.1.42-.12.84-.06 1.25-.57-.03-1.21.05-1.59.44-.14.14.01.33.18.3.3-.05.58-.2.88-.27.21-.05.42-.06.63-.05.06.21.13.42.22.63-.18.06-.35.14-.5.21-.38.17-.75.42-.99.76-.11.15.09.28.22.22.35-.16.68-.38 1.03-.55.15-.07.32-.12.49-.18.16.28.35.54.56.8-.41.24-.78.58-.9 1.03-.03.1.09.21.19.15.36-.24.65-.57.96-.88 1.11 1.22 2.67 2.16 3.92 2.57 1.88.62 3.93.72 5.89.62 1.85-.09 4.72-1.14 6.43-.21.07.04.13.02.17-.02l.03-.03c.01-.02.02-.04.02-.06 0-.01.01-.01.01-.03-.1-4.06-2.64-7.49-6.4-8.97-2.08-.82-4.37-1.02-6.58-.69-2.59.39-4.87 1.66-7.54 1.44-.23-.02-.34.3-.18.44.9.88 1.89 1.13 2.91 1.08zm.67-.07c1.99-.32 4.11-1.54 6.09-1.68 5.13-.36 10.05 3 10.7 8.24-2.39-.82-5.13-.1-7.59-.15-2.01-.04-4.14-.32-5.91-1.34-2.21-1.28-2.61-2.93-3.29-5.07z" fill="#000000" stroke-width="none" opacity="1"></path></g></g></g><g id="svga-group-eyes-right-move" transform="matrix(1,0,0,1,0,0)"><g id="svga-group-eyes-right" transform="matrix(1,0,0,1,0,0)"><g id="svga-group-eyesback-right"><path id="SvgjsPath7265" d="M109.1 101.3s.3-2.5 1-3.8 3.7-4.4 7-5c4.9-1 9.3 1.7 9.3 1.7s0 2.4-1.5 4.1c-1.4 1.7-3.9 2.6-4.9 2.7s-4.6.3-6.5 0c-1.3-.2-2.8-.2-3.4 0-.5.2-1 .3-1 .3z" fill="#ffffff" stroke-width="none" opacity="1"></path></g><g id="svga-group-eyesiriswrapper-right" transform="matrix(1,0,0,1,0,0)"><g id="svga-group-eyesiriscontrol-right" transform="matrix(1,0,0,1,0,0)"><g id="svga-group-eyesiris-right" transform="matrix(1,0,0,1,0,0)"><path id="SvgjsPath5045" d="M118 91c3 0 5.4 2.4 5.4 5.4s-2.4 5.4-5.4 5.4-5.4-2.4-5.4-5.4S115 91 118 91z" fill="#009494" stroke-width="none" opacity="1"></path><path id="SvgjsPath5046" d="M118 91.3c2.8 0 5.2 2.3 5.2 5.2s-2.3 5.2-5.2 5.2-5.2-2.3-5.2-5.2 2.4-5.2 5.2-5.2m0-.5c-3.1 0-5.7 2.6-5.7 5.7s2.6 5.7 5.7 5.7 5.7-2.6 5.7-5.7c0-3.2-2.5-5.7-5.7-5.7z" fill="#007575" stroke-width="none" opacity="1"></path><path id="SvgjsPath5047" d="M115.1 98c0 1.3.5 2.5 1.4 3.4.5.2 1 .2 1.5.2 2.8 0 5.2-2.3 5.2-5.2 0-1.1-.3-2-.9-2.8-.7-.3-1.4-.6-2.3-.6-2.7 0-4.9 2.2-4.9 5z" fill="#10a3a3" stroke-width="none" opacity="1"></path><path id="SvgjsPath5048" d="M118 93.6c1.5 0 2.8 1.3 2.8 2.8s-1.3 2.8-2.8 2.8-2.8-1.3-2.8-2.8 1.3-2.8 2.8-2.8z" fill="#000000" stroke-width="none" opacity="1"></path><path id="SvgjsPath5049" d="M116.8 93.6c.5 0 1 .4 1 1s-.4 1-1 1-1-.4-1-1 .4-1 1-1zM120 98c.2 0 .4.2.4.4s-.2.4-.4.4-.4-.2-.4-.4.2-.4.4-.4z" fill="#ffffff" stroke-width="none" opacity="1"></path><path id="SvgjsPath5050" d="M118 101.6c.3 0 .5 0 .8-.1-.2 0-.3-.2-.4-.4 0 .3-.2.4-.4.5-.3 0-.5-.2-.5-.4-.1.2-.4.3-.6.2-.2-.1-.4-.3-.4-.5-.2.2-.4.2-.6.1s-.3-.3-.3-.5c-.2.2-.5.1-.7 0s-.2-.5-.1-.7c-.2.2-.5.1-.7 0-.2-.2-.2-.5 0-.7-.2 0-.5-.1-.7-.3.9 1.7 2.6 2.8 4.6 2.8zm-4.7-3s0-.1 0 0c0-.1 0 0 0 0zm9 .7c-.1.1-.3.2-.5.2.1.4-.3.8-.8.8.1.2 0 .4-.2.6-.2.1-.4.1-.6 0 0 .2-.1.4-.3.5-.2.1-.5 0-.6-.2 0 .2-.1.4-.2.5 1.4-.5 2.5-1.3 3.2-2.4zm-1.9-7.2c.3-.1.6.2.5.5.3-.2.8.3.6.6.2-.1.4 0 .4.2.1.2.1.4-.1.5.2 0 .5.1.6.3s.1.5-.1.7c.2 0 .4.2.5.4.1.2 0 .5-.2.6.2.1.3.3.3.5s-.1.4-.3.5c.2.1.3.3.3.5s-.2.4-.4.4c.3.2.1.8-.2.8.1.1.1.3.1.5.5-.8.7-1.7.7-2.6 0-2.1-1.2-3.8-2.9-4.7.2 0 .2.2.2.3zm-.5-.3c.1-.1.2-.1.3 0-.5-.2-1-.4-1.5-.4v.1c.4-.2.9 0 1.2.3zm-5.6 7.1c.2 0 .3-.1.4-.2.2-.1.3-.2.5-.3v-.1c-.2.1-.3.1-.4.2-.2.2-.4.3-.5.4-.1 0 0 0 0 0zm-1.2-1.5c.1 0 .3 0 .4-.1.2 0 .3-.1.5-.1.1 0 0-.1 0-.1-.2 0-.3 0-.5.1-.2 0-.3 0-.4.2-.1-.1-.1 0 0 0zm.5-2.5c.4.2.8.3 1.2.4 0 0 .1 0 0-.1-.4-.2-.8-.3-1.2-.3 0-.1-.1 0 0 0zm.1-.8c.2.2.4.3.7.4 0 0 .1 0 0-.1s-.4-.2-.7-.3c0-.1 0 0 0 0zm3.8 6.7c.1-.3.2-.7.2-1 0 0-.1-.1-.1 0 0 .3-.1.7-.1 1zm3.6-4.1c.3.1.7.1 1.1.2v-.1c-.4 0-.8-.1-1.1-.1zm.2-.7c.3 0 .7.1 1 0v-.1c-.3 0-.6 0-1 .1zm.2-2.7c-.3.2-.7.5-.9.8 0 0 0 .1 0 0 .3-.3.6-.5.9-.8.1 0 0-.1 0 0zm-2.9-1.3c-.1.3-.2.5-.2.8 0 .1.1.1.1 0 .1-.3.1-.5.1-.8.1-.1 0-.1 0 0zm-2.9.3c.1.2.2.5.3.7h.1c-.1-.3-.3-.5-.4-.7 0-.1 0-.1 0 0z" fill="#007575" stroke-width="none" opacity="1"></path></g></g></g><g id="svga-group-eyesfront-right"><path id="SvgjsPath7274" d="M118.26 85.53c-6.08 0-11.02 5.6-11.02 12.5s4.93 12.5 11.02 12.5 11.02-5.6 11.02-12.5-4.94-12.5-11.02-12.5zm6.67 12.82c-1.43 1.68-3.92 2.6-4.92 2.75-1 .14-4.56.29-6.45-.04-1.34-.23-2.82-.21-3.39-.04-.57.18-1.11.32-1.11.32s.29-2.53 1.03-3.82c.75-1.28 3.66-4.38 6.95-5.03 4.92-.96 9.34 1.75 9.34 1.75s-.03 2.43-1.45 4.11z" fill="#b4d46c" stroke-width="none" opacity="1"></path><path id="SvgjsPath7277" d="M129.64 93.58c.15-.15.04-.46-.18-.44-2.68.22-4.96-1.05-7.54-1.44-2.21-.33-4.49-.13-6.58.69-3.76 1.48-6.31 4.91-6.4 8.97 0 .01.01.02.01.03 0 .02.01.04.02.06l.03.03c.04.04.1.06.17.02 1.71-.93 4.58.11 6.43.21 1.96.1 4.02-.01 5.89-.62 1.25-.41 2.81-1.35 3.92-2.57.31.31.6.64.96.88.1.06.22-.04.19-.15-.12-.45-.5-.79-.9-1.03.21-.26.4-.52.56-.8.17.06.34.11.49.18.35.17.68.39 1.03.55.13.06.33-.07.22-.22-.25-.34-.61-.59-.99-.76-.15-.07-.32-.15-.5-.21.09-.21.17-.42.22-.63.21 0 .42.01.63.05.3.07.58.21.88.27.17.03.31-.16.18-.3-.38-.39-1.02-.48-1.59-.44.06-.41.04-.83-.06-1.25 1.02.03 2.01-.22 2.91-1.08zm-6.87 6.06c-1.77 1.03-3.9 1.3-5.91 1.34-2.46.05-5.21-.67-7.59.15.65-5.24 5.56-8.6 10.7-8.24 1.98.14 4.1 1.36 6.09 1.68-.68 2.14-1.08 3.79-3.29 5.07z" fill="#000000" stroke-width="none" opacity="1"></path></g></g></g><g id="svga-group-facehighlight-single"></g><g id="svga-group-eyebrows-left-move" transform="matrix(1,0,0,1,0,0)"><g id="svga-group-eyebrows-left-rotate" transform="matrix(1,0,0,1,0,0)"><g id="svga-group-eyebrows-left" transform="matrix(1,0,0,1,0,0)"><path id="SvgjsPath5310" d="M72.9 84.2c.1-.2.4-.3.6-.4.2-.1.4-.2.6-.2.4-.2.8-.4 1.2-.5.5-.1 1.2-.5 1.7-.2 1.6-.6 3.7-.2 5.1.6 1.9.2 3.9.8 5.3 1.8.1.1.2.2.2.3.3.1.5.2.8.3 1 .4 2.1.7 3.1 1.2.1 0 .2.1.3.1.3.1.4.7.2.8-.1.1-.1.2-.2.3-.8.6-1.8.2-2.6-.1-.7-.3-1.5-.6-2-1.2-.8-.3-1.4-.7-2.1-1.1-.1 0-.2-.1-.3-.1-1.2-.2-2.5-.7-3.7-1.3-.7-.1-1.3-.3-2-.3-.9-.1-1.8.2-2.8-.1h-.1c-.2.1-.4.1-.6.2-.8.2-1.5.4-2.3.4-.1 0-.2-.1-.2-.2H73s-.2-.1-.1-.3z" fill="#2a232b" stroke-width="none" opacity="1"></path><path id="SvgjsPath5311" d="M77.4 82.3c3.1-.2 6.2 1.5 9 2.6 1.7.7 5.2.9 5.9 3 .1.3-.3.4-.5.2-.9-1.2-2.4-1.4-3.8-1.8-1.2-.4-2.3-.8-3.5-1.3-2.4-1-4.8-1.6-7.3-2.2-.1-.1 0-.4.2-.5z" fill="#3a353a" stroke-width="none" opacity="1"></path><path id="SvgjsPath5312" d="M93.3 87.9c.3-1.4-1.8-1.9-2.8-2.3-2.4-1-4.9-2.1-7.4-2.8-1.5-.4-3.1-.7-4.6-.7-1.2 0-2.3.1-3.5.5-2 .6-3.9 1.8-5.6 3.1-.9.5-1.8 1.2-2.5 1.9-.1.1 0 .3.2.2 0 0 .1 0 .1-.1 0 .1.1.1.2.1 1.5-.7 2.8-1.6 4.3-2.2 1.5-.6 3.1-1 4.7-1.1h.7c1.9 0 3.7.4 5.4 1.2 2.4 1.1 4.6 2.6 7 3.5.4.2.9.2 1.4.2 1.1 0 2.2-.4 2.4-1.5zM78.5 83c1.6 0 3.2.4 4.8.9 2 .7 4 1.6 6 2.4.4.2 2.4.7 2.6 1.2.2.6-.2.8-.8.9-.3 0-.6-.1-.8-.1-.6-.2-1.2-.6-1.7-.9-3.1-1.6-6.3-3.5-9.8-3.7h-1c-1.1 0-2.3.1-3.5.3.5-.2 1-.4 1.6-.6.8-.3 1.7-.4 2.6-.4z" fill="#1b141c" stroke-width="none" opacity="1"></path></g></g></g><g id="svga-group-eyebrows-right-move" transform="matrix(1,0,0,1,0,0)"><g id="svga-group-eyebrows-right-rotate" transform="matrix(1,0,0,1,0,0)"><g id="svga-group-eyebrows-right" transform="matrix(1,0,0,1,0,0)"><path id="SvgjsPath5313" d="M127.1 84.2c-.1-.2-.4-.3-.6-.4-.2-.1-.4-.2-.6-.2-.4-.2-.8-.4-1.2-.5-.5-.1-1.2-.5-1.7-.2-1.6-.6-3.7-.2-5.1.6-1.9.2-3.9.8-5.3 1.8-.1.1-.2.2-.2.3-.3.1-.5.2-.8.3-1 .4-2.1.7-3.1 1.2-.1 0-.2.1-.3.1-.3.1-.4.7-.2.8.1.1.1.2.2.3.8.6 1.8.2 2.6-.1.7-.3 1.5-.6 2-1.2.8-.3 1.4-.7 2.1-1.1.1 0 .2-.1.3-.1 1.2-.2 2.5-.7 3.7-1.3.7-.1 1.3-.3 2-.3.9-.1 1.8.2 2.8-.1h.1c.2.1.4.1.6.2.8.2 1.5.4 2.3.4.1 0 .2-.1.2-.2h.1s.2-.1.1-.3z" fill="#2a232b" stroke-width="none" opacity="1"></path><path id="SvgjsPath5314" d="M122.6 82.3c-3.1-.2-6.2 1.5-9 2.6-1.7.7-5.2.9-5.9 3-.1.3.3.4.5.2.9-1.2 2.4-1.4 3.8-1.8 1.2-.4 2.3-.8 3.5-1.3 2.4-1 4.8-1.6 7.3-2.2.1-.1 0-.4-.2-.5z" fill="#3a353a" stroke-width="none" opacity="1"></path><path id="SvgjsPath5315" d="M109 89.3c.5 0 1-.1 1.4-.2 2.4-.9 4.7-2.4 7-3.5 1.8-.8 3.6-1.2 5.4-1.2h.7c1.6.1 3.2.5 4.6 1.1 1.5.6 2.9 1.6 4.3 2.2.1 0 .2 0 .2-.1 0 0 .1 0 .1.1.2.1.3-.1.2-.2-.7-.7-1.6-1.4-2.5-1.9-1.7-1.3-3.6-2.4-5.6-3.1-1.1-.4-2.3-.5-3.5-.5-1.6 0-3.1.3-4.6.7-2.5.7-5 1.8-7.4 2.8-.9.4-3.1.9-2.8 2.3.4 1.2 1.5 1.6 2.5 1.5zm15.2-5.9c.5.2 1.1.3 1.6.6-1.2-.2-2.3-.3-3.5-.3h-1c-3.5.2-6.8 2.2-9.8 3.7-.6.3-1.1.7-1.7.9-.2.1-.5.1-.8.1-.5 0-1-.2-.8-.9.2-.5 2.2-1 2.6-1.2 2-.8 4-1.7 6-2.4 1.6-.5 3.2-.9 4.8-.9.8 0 1.7.1 2.6.4z" fill="#1b141c" stroke-width="none" opacity="1"></path></g></g></g><g id="svga-group-nose-single-move" transform="matrix(1,0,0,1,0,0)"><g id="svga-group-nose-single" transform="matrix(1,0,0,1,0,0)"><path id="SvgjsPath3855" d="M104.93 107.57c-.14-.18-.45.05-.32.25.84 1.29 1.76 2.56 2.54 3.89.53.9 1.07 2.03.7 3.12-.61 1.79-2.18 1.68-3.45 1 .48-.61.75-1.33.69-2.12-.02-.19-.29-.37-.44-.18-1.26 1.59-2.06 3.25-4.41 3.34-2.48.1-4.08-1.91-4.73-4.07-.06-.19-.32-.14-.33.04-.07.99.25 1.95.79 2.76-.36.07-.73.14-1.09.16-1.15.07-1.34-.02-2.11-.98-.8-1.01-.81-1.27-.36-2.39.21-.53.52-.98.82-1.45.97-1.52 1.84-3.06 2.48-4.75 1.29-3.37 1.85-7.09 1.22-10.66-.03-.15-.26-.11-.27.04-.01 2.89-.19 5.74-1.04 8.52-.88 2.88-2.54 5.04-3.92 7.64-.72 1.35-1.02 3.12.21 4.28 1.22 1.15 3.1.78 4.52.24.85.92 2.02 1.56 3.26 1.67 1.4.12 3.23-.55 4.36-1.7 1.31 1.45 3.82.78 4.47-1.08 1.01-2.82-2.06-5.64-3.59-7.57z" fill="#7ea623" stroke-width="none" opacity="1" transform="translate(0 2)" stroke="none"></path><path id="SvgjsPath3856" d="M102 110.13c-.8-.75-2.07-.97-2.97-.27-.33.25-.52.57-.61.9-.16.05-.3.14-.44.27-.68.67-.39 1.71.19 2.34.5.53 1.31.78 2.02.75.88-.05 1.67-.46 2.16-1.2.57-.86.4-2.09-.35-2.79z" fill="#bedc7b" stroke-width="none" opacity="1" transform="translate(0 2)" stroke="none"></path></g></g><g id="svga-group-hair-front" transform="matrix(1,0,0,1,0,0)"><path id="SvgjsPath7330" d="M162.6 57.4c-.2-2.8-1.3-5.7-3.2-7.7.2-3-.9-6-3.1-8.3-.4-.4-.9-.8-1.3-1.1-.9-1.8-2.4-3.4-4-4.6-2.8-6.5-8.6-12-15.2-9.1-3.9-2.5-10.2-2.3-11.8 2.4-4.2 1.4-7.5 5.5-7.3 9.7-5.3-2.4-12.3-1.5-17.2 1.5-4.3-2.8-10.1-3.6-15.5-2.6-.3-2.7-1.5-5.3-3.7-7.1-.8-3-3-5.8-6.1-7-4.3-1.8-8.6-1-12.3 1.2-3.5 1.2-6.6 3.9-8 7.2-1.5.5-2.8 1.3-4 2.3-.6.5-1.1 1.1-1.6 1.7h-.1c-4.3 2.4-7.3 7.2-6.4 12.3 0 .3.1.6.2.9-.1.2-.2.5-.3.7-3.2 3-5.6 6.7-4.8 11.3.4 2.7 2.1 5.1 4.5 6.1.2.3.5.6.7.9 1.1 1.1 2.6 1.7 4 1.6 1.2 1.4 2.9 2.4 4.9 2.7 1.1.2 2.2.1 3.2-.2-.8 6.8.5 14.1 3.9 18.7.1.2.3.2.4.1.7 1.3 1.4 2.6 2.2 3.8-.1.9-.4 1.9-.8 3-.3.9-.5 1.7-.4 2.7.2 2.8 2.4 4.9 2.8 7.7 0 .2.4.2.4 0 .6-3.5-2.2-6.4-1.2-9.9.4-1.4.8-2.7.8-3.9.4-2 0-4.4-.6-6.6.3-.1.5-.4.4-.7-.1-.2-.1-.5-.2-.7.2.2.8.2.7-.2-.1-1-.3-1.9-.5-2.9v-.6c.1-.1.2-.3.2-.5-.1-.7-.2-1.4-.4-2.1.1.1.3.1.5.1.1.1.1.2.2.3.2.3.6 0 .5-.3-.1-.3-.2-.5-.3-.8v-.6c.4.2.9-.1.8-.6-.1-.4-.2-.8-.4-1.2.3.2.7-.1.6-.5l-.3-1.2c.5.2 1.1-.2.9-.8l-.3-.9.4.4c.3.3.8-.2.7-.5 0-.1-.1-.2-.1-.4.7.3 1.4-.6 1.1-1.3-.2-.5-.5-1.1-.7-1.6.1.1.1.2.2.3.2.3.7.1.6-.2 0-.1-.1-.2-.1-.3.1.2.3.3.4.4.4.4 1.2 0 1.1-.5.7.4 1.6-.3 1.2-1.2-.3-.7-.7-1.4-1-2.1l1.2 1.5c.1.2.3.2.4.2.1.1.2.2.3.4.4.4 1.2-.1.8-.6-.5-.7-1-1.4-1.5-2.2-.1-.1-.1-.2-.2-.3.2.2.3.5.5.7.2.2.5.3.7.2.3.1.8-.3.5-.7-.1-.1-.1-.2-.2-.4.5.4 1 .7 1.5 1 .5.3 1.3-.3.9-.9-.2-.2-.4-.5-.5-.7.2 0 .4-.2.4-.4.2.1.5.2.7.3.7.2 1.1-.7.7-1.1-.3-.3-.6-.6-.9-.8.7.3 1.3.5 2 .6.6.1.9-.6.4-1-.1-.1-.2-.2-.4-.3.4.1.8.2 1.1.3.7.1 1-.7.4-1.1h.2c.2 0 .3 0 .4-.1.2.2.4.3.6.5.7.6 1.8-.4 1.1-1.1-.1 0-.1-.1-.2-.2.3.3.7.5 1 .8.4.3.9-.4.6-.8l-.6-.6c.5.1 1 .2 1.4.3h.2c-1.2 1-2.2 2.5-2.5 4-.1.3.4.5.5.2.8-1.6 1.8-3 3.4-3.9.9-.5 1.8-.7 2.6-.8h.5c-1.7 1.5-3 3.7-3.4 6-.3 1.9 0 3.7.3 5.5 0 3.4.5 7 .2 10 0 .2.3.2.3 0 .7-2.2.8-4.4.8-6.7.5-2 .2-3.9.2-5.8.3-2.4 1-4.6 2.7-6.7 0 0 .1-.1.1-.2 1.3-1.2 2.8-1.7 4.4-1.9-.6.3-1.1.7-1.5 1-1.8 1.6-2.9 4.2-3.2 6.7-.8 3.6-.7 7.5-1.1 10.9 0 .2.3.2.3 0 1.5-3.9 1.7-12 4.5-16 1.8-1.9 4.2-2.4 6.7-1.8h.3c.1 0 .2 0 .2.1h.2c.2.1.3.1.5.2.3.4.9.6 1.5.3.1.2.3.2.4.1 2.8-1.8 7.9-2.5 8.6 2 .4 2.4-1.3 4.6-.7 7.1.1.2.4.2.5 0 .7-3.5 3.4-7.3.3-10.4h.1c.5-.1 1-.2 1.6-.3-.2.5.3 1.2.9 1 1.1-.2 2.4-.6 3.7-.9l-.9.6c-.8.5-.3 2.1.7 1.7l3.6-1.5c-.6.4-1.3.8-1.9 1.3-.6.4-.1 1.2.6 1 .4-.2.9-.4 1.3-.6.1.3.4.6.8.5.1 0 .2 0 .2-.1-.2.6.2 1.3.9 1 1-.4 1.8-.9 2.7-1.5-.5.6-1.1 1.2-1.6 1.8-.6.6.2 1.6.9 1.2h.1l-.2.2c-.5.5.2 1.4.8 1 .6-.3 1.2-.7 1.7-1.1-.1.2-.3.4-.4.6-.4.6.4 1.1 1 .7h.1c-.1.6.6 1.1 1.2.6.5-.5 1.1-1 1.7-1.6-.5.6-1.1 1.3-1.7 1.9-.5.5.2 1.5.8 1.1.8-.5 1.6-1.2 2.4-1.9-.6 1.1-1.2 2.1-1.7 3.2-.3.6.4 1.3 1 .8s1.1-1.1 1.6-1.7c-.5.8-1 1.5-1.3 2.3-.2.5.2 1 .7.7.2-.1.4-.2.6-.4.1.5.8.8 1.2.3 1.5-1.7 2.8-3.4 3.9-5.5.1-.2.2-.3.3-.5-.3.7-.6 1.5-.9 2.2-1 2.1-2.4 4-3.9 5.8-.4.5.1 1.5.8 1 .9-.7 1.8-1.5 2.6-2.5-.9 1.7-2 3.2-3.2 4.6-.5.6.3 1.4.9.9 1.2-1 2.3-2.2 3.1-3.5-.7 1.8-1.5 3.5-2.4 5.3-.3.5.4 1.1.8.6 1.1-1.2 2.1-2.7 3-4.2-.7 1.7-1.4 3.3-2.2 4.9-.2.4.2.9.6.8-.2.3-.4.5-.6.8-.4.6.4 1.1.9.7.4-.3.9-.8 1.3-1.2-.5 1-.9 2-1.2 3.1-.2.6.6 1 1 .6.1-.1.1-.2.2-.2-.4.8-.7 1.6-1.1 2.4-.2.5.2.9.6.7-.1.3-.1.5-.2.8-.1.3-.3.6-.4.9-.1.3-.1.7.2.9v.2c-.5 2.2-.6 4.5-.2 6.7 0 .1.1.2.1.2v.6c-.4 1.8-.4 3.6-.1 5.5.6 3.6 2 6.2 1 10-.7 2.6-1.4 4-.4 6.6.1.2.4.2.4-.1-1.1-4.6 2.4-8.1 1.8-12.6-.3-2.3-1.3-4.5-1.2-6.9.1-1.8.6-3.4 1.2-5.1 1.2-1.3 2.1-3.4 2.5-5.3 2.1-4 3.8-8.5 4.2-12.9 1.7.3 3.6-.3 4.8-1.6 1.1-1 1.7-2.4 2-3.9.5-.5.9-1.1 1.3-1.8 2.1 1 4.1-.4 5.4-2.4 3.6-1.8 3.9-7.6 3.5-11.1zm-122.2-1c-.4 1.6-.6 3.1-.5 4.6-.5-1.7-.2-3.6.5-5.5v.9zM45.8 44c0-.4.1-.8.2-1.2v1c0 .1-.1.1-.2.2zm3.4-5.7c0 .1-.1.1-.1.2.1-.2.2-.5.4-.7-.2.2-.3.4-.3.5zm10.1 50.1c-.1-.3-.3-.7-.4-1 .2.3.3.6.4 1zm.6-3.2c.1.3.2.6.4.8.1.5.3.9.4 1.4-.3-.7-.6-1.5-.8-2.2zm2.3-54.8h-1.3.1c.5-.1 1.1-.2 1.6-.2-.2 0-.3.1-.4.2zm3.9-3.4c-.5-.1-1-.1-1.5-.1.3 0 .6-.1.9-.1h.6v.2zm10.3 4.5c-.2 0-.3-.1-.5-.1 0-.1 0-.1-.1-.2l.6.3zm-1.6-4.1c-.2 0-.4-.1-.6-.1-.2-.3-.5-.6-.8-.8.5.3 1 .6 1.4.9zm-2-1.2c-.2 0-.3-.1-.5-.1l-.1-.1c.2.1.4.1.6.2zm9.3 33.5v-.2c.3.1.5-.1.5-.3.1 0 .1 0 .2.1-.2.1-.5.2-.7.4zm10.2-6.3c.2.1.3.2.5.2-.1 0-.3-.1-.5-.2zm4.4-10c-.1 0-.2-.1-.2-.1h.3s0 .1-.1.1zm11.8-1.1s0-.1 0 0c0-.1 0-.1 0 0 0-.1 0 0 0 0zm14.2-10.4c-.8.3-1.7.8-2.4 1.4.8-1.2 1.9-2.1 3.1-2.8-.3.4-.5.9-.7 1.4zm2.5-.5c.1-.2.2-.3.3-.4-.1.1-.2.3-.3.4zm5.6-3.3c-.9-.4-2-.5-2.9-.5-.2 0-.4.1-.7.1 1-.6 2.2-.8 3.4-.6.5.1 1 .2 1.4.4-.3.1-.8.3-1.2.6zm4.7 5.5c-.3-.3-.5-.7-.9-1v-.1s.1 0 .1.1c.4.3.7.6 1 1-.1-.1-.2-.1-.2 0zm1.2 61.2zm.3-1-.1.1v-.2c.1 0 .1 0 .1.1zm3.2-62.4c-.5-.5-1.1-.9-1.7-1.3.8.4 1.6.8 2.4 1.3h-.7zm2.9-1.9c-.5-.3-1-.6-1.6-.9 1.3.5 2.5 1.4 3.6 2.4-.6-.6-1.3-1.1-2-1.5zm2.6 46.7v-.6c.9 0 1.7-.1 2.5-.4-.7.7-1.6 1.1-2.5 1zm8.6-16c-.3-1.4-.6-2.9-1.1-4.4 0-.3-.1-.5-.1-.8.4.8.6 1.7.9 2.6 0 .3.2 1.4.3 2.6zm1.6-15.3v-.1c.1.2.2.3.3.5-.1-.1-.2-.3-.3-.4z" fill="#7b2587" stroke-width="none" opacity="1"></path><path id="SvgjsPath7331" d="M151.8 70.8c-.5 1.7-1.6 3.3-3.6 3.5-1.9.3-3.6-.8-4.4-2.5v-1.4c0-.1 0-.1-.1-.1 1.9 1.3 4.1 1.8 5.8-.6.2-.3-.2-.6-.4-.3-4.1 3.9-9.4-4.6-10.9-7.3-2-3.5-3-7.3-2.6-11.4 0-.3-.5-.4-.6-.1-.1.6-.2 1.2-.2 1.7-.2-1.2-.4-2.5-.4-3.7h.9c.1.7.4 1.5.9 2.1.8 2.4 2.6 4.4 5 5.1 2.4.7 5.4-.3 5.4-3.2-.1-4.5-7.4-12.7-11.6-8.5.9-3.1 3.2-5.6 7.1-6.2 1.6 1.7 3 3.6 4.2 5.6 1.2 2.1 2.2 4.3 3 6.6 1.1 3.3 3.4 13.6-4.6 12.1-.4-.1-.6.5-.2.6 7.6 2.7 7.2-7.8 5.9-12.3-1.4-4.8-3.9-9.3-7.3-12.9.2-.2.2-.5-.1-.6h-.4c-1.9-1.9-4.1-3.6-6.4-5-.2-.1-.4.2-.2.3 1.9 1.4 3.6 2.8 5.2 4.4-6.1-.4-9.9 4.6-9.9 9.8-1.9-.9-3.7-2.2-4.9-4.2-2-3.1-3.5-10.3 1.9-11 .2 0 .2-.3 0-.3-4.9.4-5.3 5.8-3.9 9.5 1.2 3.4 3.8 6 7 7.2v.1c-7.2-.2-13.1-6.7-10.7-14.5.1-.3-.4-.4-.5-.1-1.5 4.5-.3 8.9 2.4 11.9-2.3-1.8-4.1-4-5.1-7-.1-.3-.6-.2-.5.2.1.4.2.7.3 1.1-2.3-1.4-5.3-1.9-7.9-.9-.3.1-.3.7.1.7 2.8-.4 5.2-.3 7.8 1.1.1.1.2.1.3 0 .2.4.3.7.5 1.1-3.9-1.5-8.6-1.5-12.4.3-.4.2-.1.8.3.7 4.2-1.1 7.8-1.4 12-.3.2 0 .3 0 .3-.1.7 1.2 1.6 2.4 2.6 3.3-.7-.1-1.6-.3-2.2-.1-.3.1-.2.5 0 .6.4.1.8.1 1.2.2h1.3c.1 0 .2-.1.2-.2.9.7 1.8 1.3 2.9 1.7.2 0 .3 0 .3-.1.4.3.9.5 1.3.8-2.4-.4-5 .3-7.2 1.3-.2.1-.1.5.2.4 2.6-.7 5.1-.7 7.7-.8.2 0 .3-.2.3-.4 1.4.5 2.9.7 4.5.6.4 1.9 1.4 3.8 3.1 5.2 0 0 .1 0 .1.1.1.2.1.4.2.6v.1l-.1-.1c-1.3-.4-2.4-.6-3.5-1.4-1.2-.8-2.1-2-2.6-3.4-.1-.3-.5-.2-.4.1.1.2.1.5.2.7-1.4-.2-3.1-.3-4.3.4-.3.2-.2.7.2.6 1.4-.1 2.8-.4 4.2-.4.1 0 .2 0 .2-.1 1 2.1 3.1 4.1 5.5 4.2-1.7 1.6-3.3 3.3-4.9 5-.2.2.1.5.3.3 1.8-1.6 3.4-3.3 5-5.1.1-.1.1-.2 0-.2h.1c.1 0 .2-.1.3-.2.2 1.4.5 2.7 1 4-.8 2.5-2 4.6-3.5 6.7-.2.2.2.5.4.3 1.7-1.6 2.9-3.9 3.4-6.2.3.7.7 1.5 1.1 2.2-.6 1.4-1.2 2.8-1.9 4.2-.8 1.5-1.7 2.8-2.5 4.2-.2.3.3.7.6.4 2-2.1 3.6-5 4.4-7.9.4.6.7 1.1 1.1 1.7-1.2 2.5-2.4 5.1-3.3 7.8-.1.3.4.5.5.2 1.2-2.4 2.2-5 3.2-7.5.2.3.5.7.7 1-.2-.1-.4-.1-.4.2-.4 3.1-1.5 5.7-2.8 8.4-.2.4.3.7.6.3 1.9-2.5 2.6-5.6 2.8-8.7v-.1c.1.1.2.2.3.4.6.7 1.3 1.6 2.2 2.3-.3 2.8-1 5.3-1.9 7.9-.1.3.3.5.5.2 1.2-2.4 2-5 2.1-7.6.1.1.2.2.4.3-.1 0-.3 0-.3.2-.4 4.1-1.3 7.5-2.8 11.3-.1.3.4.6.6.2 1.6-2.7 2.4-6 2.6-9.1.1.2.2.3.3.5l-.1.1c-.9 6.1-2.6 11.5-5.4 17-.2.3.3.6.5.3l1.8-3c-.2.5-.4 1-.5 1.5-.1.2.3.4.4.2 1.7-3.4 2.7-7.2 3.2-11 .3-1.6.4-3.1.5-4.7 1 1 2.3 1.6 3.8 1.4 2.1-.3 3.9-2.1 4-4.3-.2-.5-.7-.5-.8-.2zm-6.5-19.6c1.3 4.2-2.7 4.7-5.4 3.1-.2-.2-.5-.3-.7-.5 2.2 1.2 5.4.6 5.6-2.3 0-.3-.4-.3-.5-.1-1 2.6-4 2.2-5.7.6-.5-.5-1.2-1.2-1.7-2.1-.1-.2-.1-.4-.1-.5 0-.2-.2-.3-.3-.3-.1-.1-.1-.3-.1-.4.3-.1.3-.6-.1-.6h-.1c-.1-.6 0-1.1.3-1.6.1-.2-.2-.5-.4-.3-.3.4-.5.8-.6 1.3-.3.1-.6.2-.9.2 0-.8.1-1.5.3-2.3 4.1-4.1 9.2 1.8 10.4 5.8zm-12.6-7.8c1.2-2.8 3.5-4.5 6.2-5.3-1.8 1-3.2 2.5-4.2 4.4-.8 1.6-1.2 3.3-1.2 5-.5-.1-1-.3-1.4-.5 0-1.2.1-2.4.6-3.6zm-.4 5.5c.4-.1.8-.2 1.2-.2.1 1.4.4 2.9.8 4.3-.9-1.3-1.6-2.6-2-4.1zm27.8 7c-.1-.3-.6-.2-.6.1.1 4.1.4 11.3-5.4 11.4 2.6-2.8 2.1-8.7 1.7-11.8-1.2-9.5-7.1-18.7-15.8-22.9-.3-.1-.5.2-.2.4 5.6 3.5 10.1 8 12.8 14 1.5 3.3 2.4 6.9 2.6 10.5.1 1.2 0 2.3-.1 3.5-.1 1.1-.2 2.2-.5 3.3-3.8 2.7-6.8 2.8-9.1.3-.3-.2-.7.1-.4.4 1.9 2.2 5.1 5 8.2 3 .1-.1.2-.1.3-.2l.1.1c6.7.8 7.3-7.5 6.4-12.1zm-26.6-22.5c-1.9 1.4-2.9 4.8-1 6.7.2.2.7 0 .6-.3-.4-1-.8-1.8-.7-2.8.1-1.2.6-2.3 1.4-3.1.2-.2 0-.6-.3-.5zm-8.5-1.5c.6-3.7 3.9-5.7 7.6-4.8 2.9.8 4.9 3.1 6.6 5.5.2.3.8 0 .6-.3-1.8-3.5-5.1-6.6-9.4-6.4-3.2.2-5.8 2.6-5.7 5.9 0 .3.3.3.3.1zm3.6 1.7c-1.3 2.7-.6 6.6 2.3 7.9.3.1.6-.2.4-.5-2.1-1.8-3.2-4.4-2-7.1.2-.3-.4-.7-.7-.3zm12.5 36.2c-.1.2-.2.3-.3.5-.1.1 0 .2 0 .3-1.2 3.6-2.5 7-4.1 10.5-.2.5.4.8.7.4 2.3-3.2 3.9-7.5 4.5-11.5 0-.4-.7-.6-.8-.2zm-7.1-11c-1.1 1.7-2.4 3.2-3.8 4.7-.1.2.1.4.2.2 1.5-1.3 2.8-3.1 3.9-4.8.2-.2-.1-.4-.3-.1zM77.5 44.2c-1.7 1.4-3.6 2.5-5.7 3.4-.2.1 0 .3.1.3 2.3-.8 4.5-1.9 6.3-3.5 1.5.2 3.2.5 4.6.4.1 0 .1 0 .1-.1 4.1 1.4 8.1 3 11.8 5.3.2.1.3-.2.2-.3-3.6-2.6-7.6-4.7-12-5.7h-.1c-.3-.1-.7-.2-1-.2h-.1c-.9-.1-1.8-.1-2.7-.1l.6-.6c-.1.2 0 .5.2.4 2-.1 3.9 0 5.9.2.4 0 .4-.5.1-.6-1.8-.7-4.2-.7-6.1-.1-.1 0-.1.1-.1.1.3-.3.6-.6.9-1 0 .1.1.3.3.3 1 0 2 0 3.1.1 0 .1.1.1.2.1 4.5.2 8.5 1.4 12.2 4 .2.2.4-.2.2-.4-2.2-1.7-4.8-3-7.5-3.7.1-.1.1-.4-.1-.4-2.6-.8-5.3-.8-8-.5.3-.3.5-.6.7-1 2.5-.4 4.8-.2 7.3 0 .3 0 .4-.5.1-.6-2.2-.8-4.7-.7-7-.1.3-.5.6-.9.9-1.4.1-.2-.2-.5-.4-.2-1.2 2-2.8 3.7-4.5 5.2h-.3c-.2.2-.3.5-.2.7zm5.8-4.7c3.1 0 6 0 9.1.5.3 0 .4-.3.1-.5-.9-.4-1.9-.6-2.9-.8.3 0 .6 0 .9-.1.2 0 .2-.3 0-.3-1.9-.2-3.8-.2-5.7 0-.2 0-.2.3 0 .4-.5.1-1.1.2-1.6.4-.3 0-.2.4.1.4zm32.2 4.1c.9.3 2 .3 2.9.4.3 0 .4-.5.1-.6-.9-.2-2-.5-2.9-.4-.3.1-.4.5-.1.6zm-25.1-2.7c2.4.5 4.8 1.2 7 2.2.2.1.4-.2.2-.4-2.3-1.1-4.7-1.8-7.2-2.1-.1.1-.1.3 0 .3zM39.2 61.8c-.9-2.9-.1-6.8 2.9-8.2.2-.1.1-.4-.2-.4-3.2.9-4.3 4.8-3.8 7.8.5 3.2 2.8 5.6 5.8 6.5.2.1.4-.3.2-.4-2.2-1-4.2-2.8-4.9-5.3zm14.5 7.9c-1.9.7-4 .7-5.7-.6-.3-.2-.7.2-.4.4 1.7 1.5 4.3 1.9 6.2.5.2-.1.2-.4-.1-.3zm8.8-41.6c2.9.5 5.1 2.8 5.9 5.6.1.2.3.1.3 0-.4-3.1-3-5.5-6.1-5.9-.2-.1-.3.2-.1.3zM50.2 40.2c-2.3 3.5-.5 9.3 4.3 9.1.4 0 .6-.7.1-.8-1.6-.5-3-1-4-2.5-1-1.7-.9-3.8.1-5.4.3-.5-.3-.8-.5-.4zm9 25.6c-1.1 4.2-.8 8.4 1.1 12.3.1.2.4.1.3-.1-1.3-3.9-1.7-7.9-.9-12.1.1-.3-.4-.5-.5-.1zm-3.9 3.6c-.1.8-.2 1.6-.2 2.4-.1 0-.1.1-.1.2-.5 5.1.8 10.4 4.3 14.3.2.3.7-.1.5-.4-1.6-2.4-2.8-4.7-3.5-7.3.7 2 1.8 3.8 3.2 5.4.3.3.8-.1.5-.4-2.9-4.4-4.5-8.7-4.2-14.1.1-.3-.5-.4-.5-.1zm-.7 6.3c0-.2-.3-.1-.3 0 .3 4.9 2.4 9.9 6.2 13 .2.2.5-.1.3-.3-3.2-3.7-5.5-7.6-6.2-12.7zM63.2 61l1.2-1.8c.2-.3-.2-.5-.4-.2-.1.1-.1.2-.2.2.1-.2-.1-.3-.2-.4.1-.5.3-1 .5-1.4.1-.2-.3-.4-.4-.2-.4.7-.7 1.5-.9 2.3-.7 1-1.4 2-2.2 2.9-2.1 1.7-4.5 2.7-7.3 2.8-5 .1-8.9-3.4-9.7-8.3 0-.3-.5-.2-.5.1.3 4.9 3.9 8.5 8.8 9.1 1.9.2 3.7-.1 5.4-.7-1.4.9-3.1 1.6-4.9 1.9-6.1.8-11.6-4.1-9.7-10.4.1-.2-.2-.3-.3-.1-2.2 5.1 1.1 10.4 6.4 11.4 3.5.7 6.7-.3 9.3-2.2-.3.7-.5 1.3-.6 2v-.4c0-.3-.5-.3-.5 0-.4 5.3.7 10.7 3.7 15.1.2.2.5 0 .4-.2-1.9-4.2-3.1-8.3-3.5-12.8.1 0 .2 0 .2-.1.3-1.5.6-2.9 1.2-4.3.5-.4.9-.8 1.4-1.3-.8 3-.7 6.4.5 9.2.2.4.7.1.7-.3-.6-3.5-.8-6.6-.1-10.1v-.1l.9-.9c-.2 2.4.3 4.8 1.7 6.8.2.3.7.1.6-.3-1.1-2.4-1.7-4.8-1.5-7.3zm2.1-8.9s0-.1-.1-.1v-.1c2.2-1.8 3.9-3.9 5.2-6.3v.5c0 .2.3.2.3 0 .1-.4.1-.9.1-1.3 2.7-5.7 2.7-12.5-.4-18.4-.1-.2-.6-.1-.5.2 2.2 5.4 2.5 10.8.9 15.7-.3-3.6-1.8-7.1-4.2-9.8-2.4-2.6-6.1-4.6-9.1-1.8-.3.3.1.7.4.4 4.1-3.7 8.7 2.1 10.4 5.2 1.2 2.2 1.8 4.6 2 7.1-1 2.6-2.6 5.1-4.8 7.3.2-.8.3-1.7.4-2.6 0-.3-.5-.4-.5-.1-.3 2.1-1.1 3.9-2.2 5.5.1-.6.2-1.2.3-1.7 1.9-3 2.6-6.8 1.2-10.2-.1-.2-.5-.2-.4.1.8 3.2.7 6.3-.8 9.1 0-.9-.1-1.7-.3-2.5 0-1.8-.5-3.5-1.3-5.1 1.1-1 2-2.2 2.6-3.5.1-.2-.2-.4-.3-.2-.7 1.1-1.6 2.2-2.6 3.1-1.8-2.9-4.8-5.1-8.6-5.4-.2 0-.2.3 0 .3 3.7.9 6.4 3 7.9 5.7 0 0-.1.1-.2.1-2-2.4-5-4-8.2-4.2-.1-2 .7-4 2.2-5.5.1-.1 0-.2-.1-.1-1.7 1.4-2.7 3.5-2.8 5.6-1.1 0-2.2.1-3.4.4-.2.1-.1.3.1.3 1.2-.2 2.3-.3 3.3-.2.1 1.6.9 3.2 2.4 4.3 2.2 1.6 4.4 1.4 6.2.3.8 1.1 1.5 2.4 1.9 3.7.1 1.8-.2 3.7-1 5.6-2 1.5-4.1 2.7-6.4 3.2-4.5-3.5-7.2-8.9-6.4-14.8 0-.3-.6-.4-.6-.1-.9 5.8 1.3 11.8 6.1 15-1.9.2-3.8-.2-5.8-1.4-5.5-3.4-5.5-10.4-1.8-15.1.2-.3-.1-.7-.4-.4-3.5 3.1-4.4 7.8-2.9 11.8-.2-.1-.5.1-.3.3 4.4 10 17.8 9.5 22 1 .1.6.3 1.2.4 1.8 0 0-.1 0-.1.1-1.1 3.5-.8 7.4 1.4 10.4.2.3.6 0 .4-.2-1.5-3.2-2.2-6.3-1.6-9.8.9 3.2 2.5 6.3 4.9 8.4.3.3.9-.1.7-.5-2.4-3.4-4.5-6.7-5.6-11.1zm-10.2-8.5c-1.5-.9-2.4-2.3-2.6-3.8 3 .4 5.6 1.9 7.5 4-1.5.8-3.1.9-4.9-.2zm6 .3s.1 0 0 0c.1 0 .1.2.2.2l-.2-.2zm1.7 8.3c-.1.1-.2.3-.3.4-.1.1.1.3.2.2 0 .5-.1 1.1-.2 1.7-.7.8-1.5 1.5-2.4 2.1.8-.7 1.5-1.5 2-2.5.1-.1 0-.3 0-.5.3-.6.6-1.3.8-2-.1.3-.1.5-.1.6zm3.8 1.4c.7 2.3 1.7 5.1 3.5 6.8.3.3.8-.1.6-.4-.6-1-1.3-2-1.9-3-.6-1.1-1.2-2.3-1.6-3.5-.2-.4-.7-.3-.6.1zm5.6 1.3c-1.2-1.3-2.3-2.7-3.7-3.7-.3-.2-.7.2-.5.5.8 1.4 2.1 2.6 3.1 3.8 1.2 1.3 2.3 2.8 3.7 3.9.4.3 1-.1.7-.5-.9-1.4-2.2-2.7-3.3-4zm-2.8-4.7c-.1 0-.1 0 0 0 5.8-5.1 12.4-18.2 4.5-23.4-.2-.1-.5.2-.3.4 7.3 6.7-.5 18.7-6 23.5-.3.3.1.8.4.6l.9-.6c0 .1.1.2.2.2 2.6 1.6 4.7 3.7 6.8 5.9.2.3.7-.1.5-.4-1.7-2.9-4.2-4.9-7-6.2zm4.3-2.2c-.2 0-.2.4.1.4 2.9-.1 5.2.6 7.8 1.8.4.2.6-.3.3-.5-2.3-1.8-5.5-2.2-8.2-1.7zm11.3.5c2.5 1 4.8 2.2 7.1 3.7.1.1.2-.1.1-.2-2.2-1.7-4.6-2.9-7.2-3.8 0-.1-.1-.1-.1-.2-2.4-1.5-5.4-2-8.1-2.1-.3 0-.4.5-.1.5 2.8.4 5.3 1.3 7.9 2.1.2.1.3 0 .4 0zm-2.9 4c-2.9-2.4-6.7-3.5-10.4-3.5-.3 0-.3.5 0 .5h.1c-.1.1-.1.3.1.4 2.6 1 5.3 2.2 8 3 .2.1.4-.3.2-.4-2.5-1.1-5.2-2.1-7.8-3 4.1.4 7.5 2 10.8 4.4.1.1.2 0 .3 0 3.3 1.9 6.9 3.5 10.5 4.7.2.1.4-.3.2-.4-4.3-1.8-8.2-3.6-12-5.7zm-6.1-.4c-.3-.1-.5.2-.2.4 3.3 2.2 6.9 4 10.5 5.8.2.1.4-.2.2-.3-3.5-2-6.9-4.2-10.5-5.9zm.7 2.9c-.3-.1-.6.2-.3.4 1.6 1.5 3.7 2.5 5.5 3.7.2.1.4-.2.2-.4-1.7-1.2-3.4-2.7-5.4-3.7zm41.3-4.1c-5.7 1.1-12.6 3.7-17.1 7.5-.2.1 0 .3.2.2 2.8-1.2 5.4-3 8.3-4.2 2.8-1.2 5.8-2.1 8.8-3 .3-.1.1-.6-.2-.5zm-16.8 3.7c4.6-2.3 9-3.6 14-4.3.2 0 .2-.4-.1-.4-5 0-10.1 1.6-14.2 4.4-.1.1.1.5.3.3zm.1-2.7c3.9-1.9 7.8-2.9 12-3.6.2 0 .2-.4-.1-.4-4.3 0-8.5 1.5-12.2 3.7-.1.1.1.4.3.3zm.8-4c3.8-1.3 7.6-2.1 11.4-3 .2 0 .2-.4-.1-.4-3.9.5-7.8 1.7-11.4 3.2-.1.1 0 .2.1.2zm21.6 5.7c-4.2 1.9-8.4 3.9-12.7 5.5-.2.1-.2.5.1.4 4.5-1.3 8.9-3.1 12.9-5.5.2-.2-.1-.6-.3-.4zm2.4 1.6c-2.9 1.5-5.8 3.3-8.8 4.8-.3.1 0 .5.2.4 3.1-1.3 6.1-2.7 8.7-4.8.4-.2.2-.5-.1-.4zm1 3.3c-1.8 1.2-3.6 2.5-5.4 3.7-.3.2 0 .8.3.5 1.8-1.3 3.6-2.6 5.3-4 .2 0 0-.3-.2-.2zm-32.4-4.8c-.2-.1-.4.3-.2.4 1.1.9 2.5 1.8 3.8 2.5.5.2.8-.4.4-.7-1.3-.9-2.6-1.7-4-2.2zm1.1 3.3c-.2-.1-.3.2-.1.3.7.5 1.7.9 2.4 1.4.2.1.4-.2.2-.3-.7-.6-1.6-1.1-2.5-1.4zm.4-5.2c-.2 0-.4.2-.2.4.7.8 1.8 1.2 2.7 1.7.3.2.5-.3.3-.4-.9-.6-1.8-1.4-2.8-1.7zm.9-.2c.4.3.9.5 1.3.7.4.2.7-.4.3-.6-.5-.2-.9-.5-1.4-.5-.1 0-.4.2-.2.4zm1.3-2.1c.2.2.6-.1.4-.3-.2-.3-.4-.6-.6-.8-.2-.1-.5 0-.4.2.2.4.4.6.6.9zm0-2.4c-.2-.2-.4.1-.3.3.2.2.3.4.5.6.2.2.6-.1.4-.4-.2-.1-.4-.3-.6-.5zm.1-1.8-.3-.3c-.1-.1-.3 0-.2.1 0 .2 0 .3.1.5 0 .4.8.1.4-.3z" fill="#6c1578" stroke-width="none" opacity="1"></path><path id="SvgjsPath7332" d="M60.1 51.2c.1-.2-.2-.5-.3-.3-2.2 2.4-5.5 3.7-8.7 2.6-3.6-1.2-5.3-5.4-4.5-8.9.1-.4-.5-.5-.6-.2-2.5 8.6 9.2 14.6 14.1 6.8zm-2.6 8.1c.2-.2-.1-.6-.3-.4-3.5 2.3-9.3.3-11.1-3.4-.1-.2-.5-.1-.4.2 1.5 3.9 8.4 6.9 11.8 3.6zm1.6-.1c.2-.2-.1-.6-.3-.4-2.9 1.8-6 3.6-9.3 1.6-.2-.1-.4.2-.2.4 3.2 2.2 7.2.9 9.8-1.6zm0 1.9c.1-.2-.2-.5-.4-.3-1.5 1.8-3.4 2.9-5.8 2.2-.3-.1-.4.3-.1.4 2.3.7 5.3-.1 6.3-2.3zm-2.3-24c3.4-1.5 6.2 1.2 7 4.3.6 2.1.9 5.8-.7 7.5-.2.2.1.6.3.4 1.3-.8 1.7-2.6 1.7-4.5 2.4-4.1-.9-8-4.2-10.3-.2-.2-.5.2-.2.4 2.9 2.2 5.4 5.3 4.3 8.9-.1-1.6-.6-3.2-1-4.2-1.3-3-4.5-4.7-7.5-3.1-.2.3 0 .7.3.6zm2.9-4.1c7 2.1 9.7 8.9 7.3 15.5-.1.3.3.5.5.2 3.4-6.7-.7-14.3-7.7-16.1-.3-.1-.4.3-.1.4zm7.2-6.7c3.4 1.4 3.9 5 4.2 8.3 0 .3.4.3.5 0 .3-3.6-.9-7.6-4.6-8.8-.3-.1-.4.4-.1.5zM60 27.4c2.5-1.1 4.3.8 6 2.2.2.2.6 0 .4-.3-1.5-2.1-4.2-3.6-6.7-2.3-.2.1 0 .5.3.4zm16.5-1.1c-.1-.2-.3 0-.2.1 4.9 8.5 1.8 18.2-6.6 22.8-.2.1 0 .3.2.3 9-4.1 11.8-14.7 6.6-23.2zm1.3 16.1c-.1.2.2.4.3.2 1.9-1.9 3.6-4.4 3.1-7.2 0-.2-.3-.2-.3 0 .2 2.9-1.5 4.9-3.1 7zm-22.5 4.7c.2 0 .3-.2.1-.3-2.2-1.1-4.8-3-3.9-5.8.1-.3-.3-.4-.4-.1-1 2.9 1.3 5.6 4.2 6.2zm-1.1 18.2c-4.5.5-10.9-.7-10.8-6.5 0-.2-.3-.2-.3 0-.4 6.2 6.3 8 11.2 6.9.2-.1.2-.4-.1-.4zm14.7-12.2c-.2-.2-.5 0-.4.2 1.4 2.5 2.9 5.2 5.1 7.1.2.2.5 0 .3-.3-1.6-2.3-3.5-4.5-5-7zm.4 3.1c-.1-.2-.5 0-.3.2 1.3 2.1 2.5 4.2 4 6.1.1.2.4 0 .3-.2-1.2-2.1-2.6-4.1-4-6.1zm-2.8 3.1c-.2-.2-.5 0-.3.2 1.2 2 2.2 4.3 3.7 6.1.2.2.5-.1.4-.3-1-2.1-2.5-4.1-3.8-6zm-2.9 3.5c.5 2.1 1.3 4.4 2.6 6.1.2.2.6.1.5-.2-.8-2-1.9-3.9-2.7-6-.1-.2-.4-.1-.4.1zm-.4 2.1c.5 1.8 1.1 3.7 2.1 5.2.1.2.5.1.4-.2-.6-1.8-1.5-3.4-2.1-5.2-.1-.2-.5 0-.4.2zm-1.5 2.9c.3 2.4.6 5.1 1.6 7.3.1.2.5.1.4-.2-.5-2.4-1.3-4.7-1.7-7.2 0-.2-.4-.1-.3.1zm-1.5 2.9c.4 1.9.8 3.9 1.8 5.5.1.2.5.1.5-.2-.6-1.8-1.4-3.6-1.9-5.4-.1-.3-.4-.2-.4.1zm-.6 4c0-.2-.4-.1-.4.1.2 1.6.6 3.5 1.6 4.8.1.2.3 0 .3-.2-.2-.8-.7-1.5-.9-2.3l-.6-2.4zm-.8 5.2c-.1-.2-.4-.1-.3.1.3 1.1.8 2.3 1.7 3.2.1.1.3 0 .2-.2-.6-1.1-1.2-2-1.6-3.1zm25.6-27.4c-.3-.1-.4.3-.1.4 3.1 1.2 6.1 2.9 9.2 4 .2.1.3-.2.2-.4-2.7-1.8-6.2-2.9-9.3-4zm4-.9c-.2-.1-.5.2-.2.4 1.3.7 2.7 1.5 4 2.3-2.2-1.2-4.7-2.1-7.1-3.1-.2-.1-.4.3-.2.5 2.5 1.1 5 2.5 7.6 3.3.2.1.4-.2.2-.4.7.4 1.5.8 2.2 1.1.2.1.6-.2.3-.4-1.9-1.7-4.4-2.7-6.8-3.7zm-.4-3.7c-.3-.1-.6.3-.3.5 2.8 1.3 5.4 3 8.1 4.5.2.1.4-.2.2-.3-2.3-2-5.1-3.4-8-4.7zm2.5-.9c-.2-.1-.4.2-.2.3 2 1.2 4 2.5 6.1 3.5.2.1.3-.1.1-.2-1.9-1.4-4-2.4-6-3.6zm1.8.1c1.3.6 2.5 1.4 3.7 2.2.1.1.2-.1.1-.2-1.1-1-2.4-1.7-3.7-2.3-.2 0-.3.2-.1.3zm3.9-.5c-1.6-1-3.4-1.7-5.2-2.3-.2-.1-.3.3-.1.3 1.8.7 3.4 1.5 5.2 2.2.2.2.3-.1.1-.2zm-4.1-4.2c-.2 0-.3.2-.1.3 1.8.5 3.2 1.5 4.8 2.4.2.1.4-.2.3-.3-1.4-1.3-3.3-2-5-2.4zm3.7.4c.1 0 .2-.1.1-.2-.9-.5-2-.9-3-1.2-.2 0-.2.2-.1.2 1.1.4 2 .9 3 1.2zm-5.6-3.5c-.3 0-.4.3-.1.4 2.6.5 5 1.4 7.4 2.4.2.1.3-.1.1-.2-2.3-1.4-4.8-2.1-7.4-2.6zm3 .4c.7.2 1.3.4 1.9.7.2.1.3-.2.2-.3-.6-.4-1.2-.6-1.9-.8-.4-.1-.5.3-.2.4zm-5.4 17.5c-2.2-1.1-4.5-2.1-6.7-3.2-.3-.2-.6.3-.3.5 2.2 1.2 4.5 2.3 6.9 3.1.2 0 .3-.3.1-.4zM75 52.6c-.2-.1-.4.2-.2.3 1.7 1.5 3.6 2.8 5.7 3.7.3.1.5-.2.2-.4-2-1.2-3.9-2.3-5.7-3.6zm16.2 6.9c-2.5-.4-5.3.5-6.8 2.6-2.3 3.1-.1 6.2-.1 9.5 0 .2.3.2.3 0 .3-2.3-.9-4.4-.6-6.7.5-3.8 3.9-4.8 7.1-5.1.2.1.3-.3.1-.3zm20.7-8.7c-4.6 1.5-9.3 3.9-12.4 7.7-.1.2.1.4.2.2 3.6-3.6 8-5.2 12.4-7.5.3-.1.1-.5-.2-.4zm-11 2.6c2.3-1.7 5-2.4 7.6-3.5.3-.1.2-.5-.1-.5-2.8.6-5.6 1.7-7.7 3.7-.2.2 0 .4.2.3zm8.5-7.2c-2.6.6-5.1 1.8-7.4 3-.2.1 0 .3.2.2 2.4-1.1 4.9-1.9 7.3-2.9.2 0 .1-.3-.1-.3zm.2-1.5c-3 .3-5.9 1.6-8.4 3.5-.1.1 0 .3.1.2 2.6-1.6 5.3-2.6 8.3-3.3.2-.1.2-.4 0-.4zm-8 1.3c2.4-1.3 4.9-2.1 7.4-2.9.2-.1.2-.4-.1-.4-2.6.5-5.2 1.7-7.4 3.1-.1.1 0 .2.1.2zm5.9-4.4c-2.6.6-4.9 1.8-7 3.4-.1.1 0 .3.1.2 2.2-1.4 4.5-2.4 6.9-3.2.3-.2.2-.5 0-.4zm-7.1 1.9c2.9-1.6 5.9-2.5 9.1-3.3.1 0 .1-.3 0-.3-3.2.2-6.4 1.7-9.1 3.5-.2 0-.1.1 0 .1zm.5-2.3c2.8-1.2 5.7-1.7 8.7-2 .2 0 .2-.3 0-.3-3.1 0-6.1.8-8.8 2.1-.1.1 0 .2.1.2zm20.4 10.6c-5.6 1.3-11.2 3.3-16.5 5.4-.2.1-.1.4.1.4 5.6-1.4 11.3-2.9 16.6-5 .5-.2.3-.9-.2-.8zm2.5.3c-5.1 2.2-10 4.1-15.4 5.5-.2.1-.2.4.1.4 5.4-.6 11.1-2.4 15.7-5.4.2-.2-.1-.6-.4-.5zm3.5 1.8c-3.7 2.1-7.3 3.9-11.5 4.8-.3.1-.2.6.2.5 4.2-.7 8.3-2.2 11.6-4.9.2-.2 0-.5-.3-.4zm.5 2.6c-2.5 1.4-4.7 2.8-7.4 3.8-.3.1-.2.6.1.5 2.7-.8 5.5-1.9 7.6-3.8.2-.3-.1-.7-.3-.5zm1.8 2.6c.2-.2-.1-.5-.3-.4-1 .5-1.8 1.3-2.7 2-.9.7-1.8 1.3-2.8 1.9-.2.2 0 .5.2.4 1.9-1 4.1-2.2 5.6-3.9zm3.8-.1c.2-.2-.1-.5-.3-.3-2.4 2-4.7 3.9-7.4 5.3-.3.2 0 .7.3.5 2.8-1.3 5.5-3.1 7.4-5.5zm.9 3.3c.1-.2-.1-.5-.4-.3-1.7 1.2-3.2 2.8-4.9 4.1-.3.2 0 .7.3.5 1.8-1.3 3.8-2.6 5-4.3zm.8 2.3c.2-.2-.2-.4-.4-.3-1.8 1.4-3.3 3.3-4.9 5-.2.2.1.5.3.3 1.7-1.6 3.6-3.2 5-5zm.6 2c.1-.2-.1-.5-.3-.3-1.5 1.1-2.8 2.7-4.1 4.1-.3.3.2.7.4.4 1.3-1.3 2.9-2.6 4-4.2zm.5 2.2c.1-.2-.2-.4-.3-.2-1.1.9-2 2.3-2.8 3.4-.1.2.2.4.4.2.5-.6 1-1.3 1.5-1.9.3-.5.8-1 1.2-1.5zm.3 6.1c-.4.3-.7.8-1 1.2s-.6.8-1 1.2c-.2.3.2.7.4.4.3-.4.7-.9 1-1.3.3-.4.7-.8.9-1.2.1-.3-.1-.5-.3-.3zm1.6 2c-.5.9-1 1.9-1.6 2.7-.3.4.4.7.6.3.6-.9 1.1-1.9 1.4-2.9 0-.2-.3-.3-.4-.1zm-9.9-34.1c.1-.1.1-.2.1-.4-2-3.6-3.1-7.3-.2-10.8.3-.3-.2-.8-.5-.5-1.8 1.7-2.5 4.1-2.2 6.3-.3-1.1-.4-2.3 0-3.7.1-.2-.3-.3-.3-.1-1.2 3.4.3 6.9 2.8 9.3.1.4.5.1.3-.1zm-1 1.9c.2.1.4-.2.2-.4-1.1-1.2-2.3-2.2-3.1-3.8-.9-1.8-1.4-3.8-1.4-5.8 0-.3-.4-.3-.4 0-.2 3.3 1 8.8 4.7 10zm-.2.7c.3 0 .3-.3.1-.4-3.4-1.4-6-6.5-5.2-10.1.1-.3-.3-.4-.4-.1-1 3.5 1.2 10.6 5.5 10.6zm-5.4-1.5c.2.1.4-.2.2-.3-1.2-1.4-2.3-2.7-3.1-4.4-.1-.3-.6 0-.5.3.8 1.6 1.9 3.4 3.4 4.4zm19.7 11.8c.3.2.6-.2.4-.5-3.3-3-4.8-6.8-3.2-11.2.1-.4-.5-.6-.6-.2-1.6 4.2-.6 9.3 3.4 11.9zm4.3 11.3c-5.5-.9-9-5.6-7.8-11.2.1-.3-.4-.4-.5-.1-1.2 5.4 1.9 12.1 8.2 11.9.3 0 .4-.6.1-.6zm1.8-1.6c-3.8 1.2-7.6-4.8-7.3-8.1 0-.2-.4-.3-.4-.1-.4 2.6.9 4.8 2.4 6.8 1.3 1.6 3.5 3.5 5.5 2 .4-.2.2-.7-.2-.6zm-2.6-22.2c-.4-.4-.7-.7-1.2-1-.3-.2-.6.3-.4.5 4.7 3.7 6.9 14 2.6 18.5-.2-.2-.4-.3-.6-.5-.9-.9-1.6-2-2.1-3.2-.2-.4-.8-.2-.6.2.8 2.2 2.7 4.9 5.1 5.6.3.1.6-.3.3-.5-.5-.4-1.1-.8-1.6-1.2 2.9-2.2 3.2-5.7 2.5-9.1-.4-1.9-.9-4-1.8-5.9.1 0 .1-.1.1-.2-.4-1.2-1.1-2.2-1.9-3.1-.2-.2-.3-.2-.4-.1zm-5-13.7c4.9 1.6 6.8 8.9 2.1 11.8-.2.1-.1.5.2.4 6.2-2 2.7-11.2-2.2-12.5-.2-.1-.3.2-.1.3zm-5 9.2c.3.2.7-.2.5-.5-.5-.7-1.1-1.3-1.5-2.2-.3-.9-.4-1.9-.2-2.8.1-.5-.7-.7-.8-.2-.3 2 .2 4.6 2 5.7zm19.9 9.2c-.2-.1-.4-.3-.6-.4-.6-3.3-3-6.4-5.2-8.8-.2-.3-.6.1-.4.4 1.2 1.5 2.2 3.1 3.1 4.7.6 1.1 1 2.2 1.5 3.3-.1 0-.2-.1-.4-.1-.3-.1-.5.4-.2.5.4.2.7.4 1 .6.1.1.1.3.2.4.1.2.3.1.4 0 5.6 4.1 3.8 13.7-1.8 17.4-.3.2-.1.7.3.5 6.2-2.7 7.9-13.4 2.8-17.8v-.2c-.8-5.4-3.2-11-7.8-14.1-.3-.2-.5.3-.3.5 4.7 3.3 5.8 8.2 7.4 13.1zM148 65c2.3.4 3.9-1.4 4.8-3.3 1.2-2.7 1-5.6-.1-8.3-.2-.4-.9-.1-.7.3 1.4 3.5.9 10.2-3.9 10.7-.3 0-.4.6-.1.6zm2.5 7.5c-1 .7-2.2 1-3.3.2-.2-.2-.5.1-.3.3 1.1.9 2.9 1 3.8-.2.2-.2 0-.4-.2-.3zm1.7-3.1c-.7.5-1.3 1.1-2.2 1.4-.9.3-1.9.4-2.8.1-.4-.1-.6.5-.2.6 1.8.7 4.8.4 5.7-1.6.2-.3-.2-.8-.5-.5zm6.8-6.2c-.4.9-.7 1.8-1.3 2.6-.6.9-1.7 2.1-2.9 1.7-.4-.1-.6.5-.3.6 2.6 1.1 5-2.6 5.1-4.8.1-.3-.4-.4-.6-.1zm-6.5-10.6c.3-4-1.1-8-3.4-11.3-.3-.4-.9 0-.6.4 2.2 3.4 3.1 6.9 3.6 10.9-.1.3.4.3.4 0z" fill="#8b3896" stroke-width="none" opacity="1"></path></g><g id="svga-group-glasses-single-move" transform="matrix(1,0,0,1,0,0)"><g id="svga-group-glasses-single" transform="matrix(1,0,0,1,0,0)"></g></g></g></g></g><rect id="svga-credit-rect" width="200" height="15" x="0" y="185" fill="#ecf0f1" opacity="0.5" style="display: none;"></rect><text id="svga-credit-text" font-family="Avenir Next, Roboto, Helvetica, Arial, sans-serif" font-size="10px" text-anchor="start" font-weight="400" size="10px" anchor="start" weight="400" fill="#333333" x="33.40447998046875" y="182.60824704170227" style="display: none;"><tspan id="SvgjsTspan2896" dy="13" x="33.40447998046875">Created on AvatarMaker.com</tspan></text></g></svg>