<svg id="visual" viewBox="0 0 960 540" width="960" height="540" xmlns="http://www.w3.org/2000/svg" xmlns:xlink="http://www.w3.org/1999/xlink" version="1.1"><rect x="0" y="0" width="960" height="540" fill="#111"></rect><path d="M0 225L32 248.5C64 272 128 319 192 322.5C256 326 320 286 384 263.2C448 240.3 512 234.7 576 244.2C640 253.7 704 278.3 768 288.5C832 298.7 896 294.3 928 292.2L960 290L960 541L928 541C896 541 832 541 768 541C704 541 640 541 576 541C512 541 448 541 384 541C320 541 256 541 192 541C128 541 64 541 32 541L0 541Z" fill="#7b2587" stroke-linecap="round" stroke-linejoin="miter"></path></svg>