<svg id="visual" viewBox="0 0 960 540" width="960" height="540" xmlns="http://www.w3.org/2000/svg" xmlns:xlink="http://www.w3.org/1999/xlink" version="1.1"><rect x="0" y="0" width="960" height="540" fill="#7b2587"></rect><path d="M0 456L32 461.3C64 466.7 128 477.3 192 481C256 484.7 320 481.3 384 475.5C448 469.7 512 461.3 576 453.7C640 446 704 439 768 437.5C832 436 896 440 928 442L960 444L960 541L928 541C896 541 832 541 768 541C704 541 640 541 576 541C512 541 448 541 384 541C320 541 256 541 192 541C128 541 64 541 32 541L0 541Z" fill="#111" stroke-linecap="round" stroke-linejoin="miter"></path></svg>